<?xml version="1.0" encoding="utf-8"?>
<!-- Generator: Adobe Illustrator 28.2.0, SVG Export Plug-In . SVG Version: 6.00 Build 0)  -->
<svg version="1.1" id="图层_1" xmlns="http://www.w3.org/2000/svg" xmlns:xlink="http://www.w3.org/1999/xlink" x="0px" y="0px"
	 viewBox="0 0 949 256" style="enable-background:new 0 0 949 256;" xml:space="preserve">
<style type="text/css">
	.st0{fill:none;}
	.st1{font-family:'Cambria';}
	.st2{font-size:120px;}
	.st3{fill:#161B23;}
	.st4{fill:#2A97F8;}
	.st5{fill:#7F818B;}
	.st6{fill:#122446;}
	.st7{fill:#1E3B65;}
	.st8{fill:#DEDCED;}
	.st9{fill:#171B2C;}
	.st10{fill:#444850;}
	.st11{fill:#1E7CF8;}
	.st12{fill:#DDE5F4;}
	.st13{fill:#6AA1F9;}
	.st14{fill:#E5D8BB;}
	.st15{fill:#17150C;}
	.st16{fill:#D4B797;}
	.st17{fill:#47B840;}
	.st18{fill:#DCC634;}
</style>
<rect x="304.8" y="67" class="st0" width="630.2" height="123"/>
<text transform="matrix(1 0 0 1 304.7539 166.9902)" class="st1 st2">ThinkAlone</text>
<g>
	<path class="st3" d="M153.5,0c-0.9,1.4-0.3,3-0.4,4.6c-0.1,0.8,0.6,1.5,1.6,1.5c0.7,0,1.5,0,2.2-0.1c5.4-1,10.5,0.3,15.7,1.5
		c1.3,0.3,2.4,1,3.5,1.8c10.9,7.3,14.5,18.1,9.9,30.4c-0.4,1-0.7,2-1.1,3c-1.5,4.2-1.6,4.7,2,7.3c13.9,9.7,21.2,23.5,25.3,39.4
		c3,11.6,2.6,23.4,1.9,35.2c-0.3,4.9-1.6,9.7-2.6,14.4c-0.3,1.6-0.4,3,0.2,4.6c2.7,7.8,1.4,15.3-2.3,22.4c-0.9,1.8-2.6,3-4.1,4.3
		c-0.5-0.7-1-1.3-1.9-1.4c-2-4.6-1.6-9.3-1.1-14c0-0.3,0-0.6,0-0.9c0.1-0.2,0.3-0.4,0.4-0.6c1.4-3.4,2.8-6.9,5.5-9.6
		c1.3-1.3,1.2-4.1-0.1-4.3c-2.4-0.5-2-2.2-2.2-3.7c-0.1-1.4-0.3-2.8-0.4-4.2c0.3-0.1,0.6-0.1,0.8-0.2c1.4,1.7,0.7,4.3,2.6,6.1
		c0.8-1.9,1.3-3.6,1.4-5.4c1.1-3.7,0.8-7.6,1.1-11.3c1.2-13.6,0.4-26.8-4.4-39.8c-4.8-13.1-13.6-23-23.8-31.8
		c-5.5-4.7-11.9-8.3-18.8-10.6c-4-1.3-7.8-3.5-12.1-3.8c-2.7-1.4-5.7-1.8-8.6-2.3c-1-1.7,1.8-1.2,1.5-2.5c9.4,1.7,18,5.7,26.6,9.7
		c2.4,1.1,3.2,0.9,3.8-1.7c1.3-6.2,2.7-12.5-2.9-17.6c-0.4-0.3-1.1-1,0.3-1.1c1.3,0.6,2.5-0.3,3.7-0.2c-0.9,1-0.9,2-0.3,3.2
		c0.6,1.2,1,2.4,1.5,3.7c-0.2,0.6,0,1,0.6,1.2c0,0.3,0,0.6,0.1,0.9c-0.6,2.9-0.3,5.9-1.4,8.7c-0.5,1.2-0.3,2.2,0.1,3.3
		c-0.7,0.1-1.4,0.2-1.4,1.1c0,0.5,3.8,3.3,4.5,3.3c0.9,0.1,0.8-0.6,0.9-1.2c0-0.1,0-0.2,0-0.2c0.3,0,0.7,0,1,0
		c0.3-0.3,0.7-0.5,0.8-0.8c3.5-6.8,4-13.9,1.2-21.1c-1.4-3.6-2-3.9-5.7-2.6c-0.6,0.2-1.3,0.4-1.9,0.5c0.6-1.3,2.1-1.5,3.2-2.2
		c0.9-0.6,0.9-1.1,0.1-1.7c-3.1-2.4-6.2-4.8-10.1-6.2c-6-2.1-12-1.5-18.1-0.7c0.1-1.2-0.4-2.2-1.3-2.9c0.1-1.3,0.2-2.5,0.4-3.8
		c0.9-0.2,0.8-0.9,0.8-1.5C152.5,0,153,0,153.5,0z M207.3,161.7c-1-4.5-0.3-8.7,3-12.2c1.4-1.4,1.2-3.2-0.1-4.2
		c-1.3-1.1-2,0.8-2.8,1.5c-0.2,0.2-0.3,0.4-0.4,0.6c-2.6,4.5-3.8,9.4-3.3,14.6c0.1,1.4-0.2,2.9,0.5,4.2c0.3,0.6,0.3,1.4,1.1,1.5
		c0.7,0.1,0.8-0.7,1.2-1.2c0.7-0.9,0.8-2.3,1.4-3c2.6-3.3,3.7-7.1,3.6-11.2c0-0.5,0.4-1.3-0.4-1.5c-0.8-0.3-1,0.6-1.4,1.1
		C207.9,155,207.3,158.3,207.3,161.7z"/>
	<path class="st4" d="M163.5,256c-5.5,0-11,0-16.5,0c0.2-3-0.4-6,0.5-9c1-2,1.4-4,1.3-6.2c-0.2-2.3-0.2-4.6-0.5-6.9
		c-0.5-4.1,0.1-8.3-0.9-12.3c0.2-0.3,0.4-0.7,0.7-1c3.9-3.9,8.2-7.3,12.5-10.8c0.3-0.2,0.6-0.5,0.9-0.7c3.6-1,7.2-1.5,10.9-0.4
		c0.1,0.6,0.2,1.3,0.3,1.9c-0.3,1.2,0,2.5,0.2,3.7c0.2,1.1,0.2,2.2-0.9,2.9c-0.3-0.1-0.6-0.1-0.9-0.2c-0.3-1.4-1.5-1.8-2.6-1.8
		c-6.1-0.4-10.2,0.9-11.9,7c-0.1,0.4-0.4,0.7-0.6,1c-0.6,0-1.4-0.4-1.5,0.7l0,0c-0.1,0-0.2,0.1-0.2,0.2c-0.2-0.3-0.3-0.5-0.6-0.1
		c0.1,2.8-2,6.2,2.3,7.8c0.5,0.2,0.7,1.1,1,1.7c0.7,1.2,1.2,2.5,2.4,3.5c2.5,3,5.9,3.9,8.7,2.4c1.2-0.8,2.5-1.7,3.7-2.5
		c0.7,1.1,0.3,2.4,1.2,3.3c-0.6,2.1-0.2,4.2,0.5,6.2c0.4,1.1,0.3,1.8-0.9,2.5C169.2,250.7,166.1,253,163.5,256z"/>
	<path class="st5" d="M188,256c-1,0-2,0-3,0c-0.2-0.9-0.4-1.8-0.5-2.7c-0.9-7.3-1.9-14.5-3.9-21.5c-1.6-5.3-3.8-10.5-5.5-15.8
		c0.7-2.1,0.8-4.4,0.9-6.6c0.1-0.7,0.2-1.5-0.7-1.9c0.1-0.7,0.2-1.3,0.3-2c1.2-1,2.4-1.9,4.2-1.2c0.8,0.3,1.8,0.2,2.7,0.4
		c1.1,1.8,1.1,3.9,1.8,5.8c0.1,7.7-1.1,15.5,0.6,23.2C186.3,241,187.4,248.4,188,256z"/>
	<path class="st4" d="M96.5,256c-4.3,0-8.7,0-13,0c-0.2-2.8-0.3-5.6,0.6-8.4c2-6.2,2.9-12.6,2.3-19.2c-0.4-5-0.7-9.9,0.1-14.9
		c1,1.8,2.2,3.4,3.6,4.8c0.8,0.8,0.9,1.7,0.9,2.7c-0.1,2.8-0.2,5.6-0.4,8.5c-0.5,6.2,1.4,12,3.8,17.6
		C95.7,249.9,96.6,252.8,96.5,256z"/>
	<path class="st6" d="M147.5,247c-1,3-0.3,6-0.5,9c-0.5,0-1,0-1.5,0c-0.6-1.1,0.3-2.3-0.4-3.4c-1.4,0.5-2.8,1-4.2,1.4
		c-2,0.6-4.2,0.8-6.1-0.1c-2.5-1.2-4.8-2.9-7.1-4.5c-3.2-2.2-6.2-4.8-9.7-6.5c-0.2-0.7-0.3-1.5-1.1-1.6c-0.5-0.1-0.7,0.7-1,1.2
		c-1,0.5-1.9,1-2.9,1.5c-0.8,0-1.7,0-2.5,0c1.4-1.2,3-2.3,4.3-3.6c1.4-1.5,2.9-1.7,4.6-0.8c0.3,1,1,1.7,2,2c0.3,0.2,0.6,0.4,1,0.6
		c2.9,3.6,6.7,5.7,10.6,7.9c0.2-0.3,0.4-0.5,0.6-0.8c-3.7-2.4-7.3-4.9-11-7.3c-0.3-0.2-0.6-0.4-1-0.5c-0.3-1.1-1-1.7-2-2
		c-2-2.4-3.1-2.6-5.2-0.5c-3.4,3.2-7,6.1-10.8,8.7c-3.2,2.1-6.3,1.1-7.5-2.3c1.2,0,2,1.6,3.5,0.8c2.4-1.4,5.2-2.3,7-4.6
		c2.3-1.3,4.2-3.2,6.2-5c3,0,5.9-0.1,8.9-0.1c0,0.5,0.1,1,0.5,1.3c4,3.1,7.7,6.5,12.2,9c2.3,1.3,4.7,1,7.2-0.1
		c1.7-0.8,3.1-2.3,4.9-2.8C147.5,244.5,146.4,246.2,147.5,247z M142.4,249.6c-2.3,0-4.6-0.5-6.8,0.2c-0.6,0.2-1.6,0-1.4,1
		c0.2,0.9,1.1,0.6,1.7,0.7C138.3,251.8,140.3,250.7,142.4,249.6z"/>
	<path class="st5" d="M73.5,256c-0.7,0-1.3,0-2,0c0.2-2.9,0.4-5.8,0.5-8.7c0.4-8.5-0.9-16.9-1.8-25.3c-0.4-3.5-1.7-6.8-1.3-10.3
		c0.2-1.6,0.9-3.1,0.5-4.7c0.7-0.2,1-0.9,1.4-1.3c1.7-1.8,2.6-1.6,3.6,0.6c0.2,0.6,0.4,1.2,0.6,1.9c1.5,5.2,2,10.5,2.1,15.9
		c0,1-0.1,1.9-0.1,2.9c-0.4,0.3-0.5,0.7-0.3,1.1c-0.5,7.8-2.8,15.4-2.9,23.3C73.9,252.9,74.4,254.5,73.5,256z"/>
	<path class="st7" d="M119.4,239.6c-1.7-0.9-3.2-0.8-4.6,0.8c-1.3,1.4-2.8,2.4-4.3,3.6c0,0,0,0,0,0c-1.7,1.2-3.8,2.1-5,4
		c-0.3,0.2-0.6,0.3-1,0.5c-0.4,0-0.8,0.1-1,0.5c-1.2-0.2-1.9,0.9-3,1c-0.2,0-0.4,0-0.5,0c-0.3,0-0.6,0-1,0c-0.8-0.7-0.9-0.2-1,0.5
		c0.2,0.7,0.3,1.4,0.5,2c0,1.1,0,2.3-0.1,3.4c-0.7,0-1.3,0-2,0c0.1-3.1-0.8-6-2.1-8.9c-2.4-5.6-4.3-11.4-3.8-17.6
		c0.2-2.8,0.3-5.6,0.4-8.5c0-1-0.1-2-0.9-2.7c-1.5-1.4-2.7-3-3.6-4.8c-0.1-0.8,0-2-1.4-1c-0.1-0.9-0.1-1.8-0.9-2.4
		c-2.5-1.7-4.5-4-7.2-5.5c0.1-0.3,0.3-0.7,0.4-1c2.8,1.5,4.6,4.2,7.3,5.8c1.1-1.5,0.2-3.7,1.7-4.8c1.5-1.2,3.2-1.1,4.9-0.2
		c0.3,0.9,0.6,1.8,0.9,2.6c-1,2.6-2.4,5-2,7.9c0.1,1-0.4,2.4,0.8,2.9c1.1,0.5,1.6-1,2.4-1.4c0.2-0.2,0.4-0.4,0.6-0.5
		c2.2,0.6,4.5,1,6.5,2.3c3.5,2.3,7.3,4.3,10.3,7.2c0,0.5,0,1,0.1,1.6c-1.2,0.1-1.9-0.8-2.8-1.5c-3.6-2.9-7.4-5.3-11.6-7.1
		c-2.4-1.1-2.9-0.7-3.2,1.9c-0.5,3.2-0.3,6.5-0.6,9.7c-0.4,4.6,1,8.8,2.5,13c-0.3,1,0.4,1.6,0.8,2.4c1.2,3.4,4.3,4.4,7.5,2.3
		c3.8-2.6,7.4-5.5,10.8-8.7c2.2-2.1,3.2-1.9,5.2,0.5C119.5,239.4,119.5,239.5,119.4,239.6z M90.2,207.9c0.1-1-0.1-1.8-1.2-2
		c-1.3-0.2-1.6,0.8-1.7,1.7c-0.1,1.5-0.3,3,0.4,4.4c0.2,0.3,0.5,0.8,0.8,0.9c0.5,0.1,0.6-0.4,0.8-0.8
		C89.9,210.7,90,209.3,90.2,207.9z"/>
	<path class="st8" d="M81,256c-2.2,0-4.3,0-6.5,0c1.3-3.5,0.8-7.2,1.5-10.8c1.1-5.5,1.3-11.2,3-16.7c1.7-0.1,3.5-0.1,5-1.1
		c0.3,0,0.8-0.1,0.8,0.3c-0.1,3.1,0.4,6.1-0.1,9.2C83.9,243.4,81.4,249.5,81,256z"/>
	<path class="st8" d="M183,256c-1.5,0-3,0-4.5,0c-1.8-5.3-3.7-10.6-5-16c0-2.7-0.1-5.3-0.1-8c1-3.1,0.5-6.3,0.7-9.5
		c0.1-0.6,0.3-1.1,0.4-1.7c0.9,0.3,1.1,1.2,1.4,1.9C180.7,233.3,181.6,244.7,183,256z"/>
	<path class="st8" d="M118.1,242.9c3.5,1.7,6.5,4.3,9.7,6.5c2.3,1.6,4.6,3.3,7.1,4.5c1.8,0.9,4.1,0.7,6.1,0.1
		c1.4-0.4,2.8-0.9,4.2-1.4c0.7,1.2-0.3,2.4,0.4,3.4c-9.3,0-18.7,0-28,0c0-1.9-0.1-3.8,0-5.7C117.7,247.8,116.9,245.3,118.1,242.9z"
		/>
	<path class="st6" d="M152,0c-0.1,0.6,0,1.3-0.8,1.5c-0.1-0.3-0.1-0.7-0.5-0.7c-3,0.1-6.1-0.4-8.9,0.5c-7.6,2.3-14.7,5.6-18.8,13.1
		c-1.5,2.7-3.2,5.2-4.9,7.7c-3.6-6.5-8.9-11.5-15.1-15.5c0-0.4,0-0.7,0.1-1.1c6.6,2.8,11.2,7.8,15,13.7c1.1-2.1,2.1-4.1,3.2-6
		c3.2-5.9,8.9-9,14.5-12c0.6-0.3,1.4-0.3,1.7-1.1C142.3,0,147.2,0,152,0z"/>
	<path class="st8" d="M113.1,244c1-0.5,1.9-1,2.9-1.5c-0.7,4.5-0.3,9-0.5,13.5c-3.2,0-6.3,0-9.5,0c-0.2-1.8,0.3-3.7-0.5-5.5
		c0.9-0.6,1.7-1.3,2.6-1.9C110.2,247.6,111.6,245.7,113.1,244z"/>
	<path class="st9" d="M69.5,207c0.4,1.6-0.3,3.1-0.5,4.7c-0.4,3.6,1,6.9,1.3,10.3c0.9,8.4,2.2,16.8,1.8,25.3
		c-0.1,2.9-0.4,5.8-0.5,8.7c-0.3,0-0.7,0-1,0c0.6-1.2,0.4-2.4,0.5-3.6c0.5-11.1-1-22.1-2.9-33c-0.1-0.5-0.1-1-0.4-1.4
		c-2.1-2.2-2.6-5-3.2-7.9c-0.5-2.3-0.3-3.3,2.2-3.1c0,0-0.1,0-0.1,0c-0.5,0.5,0,0.8,0.3,0.8c0.5,0,0.1-0.5,0.2-0.8
		c0.3,0.2,0.5,0.4,0.8,0.5c0.1-0.4,0.2-0.7,0.3-1.1C68.5,206.6,69,206.8,69.5,207z M68.1,212.2c0-0.3,0-0.5,0-0.8
		c0-1.4-0.8-2.8-2-2.6c-1.3,0.3,0,1.7,0,2.6c0,0.3,0.1,0.7,0.2,1c0.4,0.7,0.2,2,1.3,1.8C68.4,213.9,67.9,212.8,68.1,212.2z"/>
	<path class="st3" d="M81,256c0.4-6.5,2.9-12.6,3.7-19c0.4-3.1-0.1-6.1,0.1-9.2c0-0.4-0.5-0.3-0.8-0.3c-0.5-2.6,1.8-4.9,0.9-7.6
		c-0.1-0.5-0.3-1-0.4-1.4c0-0.3,0-0.6,0-0.9c0-0.4,0-0.8,0-1.2c0-0.3,0-0.6,0.1-0.9c0.5-0.4,0.5-1,0.4-1.6c0.1-0.5,0.1-0.9,0.2-1.4
		c1.4-1,1.3,0.1,1.4,1c-0.8,5-0.5,9.9-0.1,14.9c0.6,6.6-0.4,12.9-2.3,19.2c-0.9,2.8-0.8,5.6-0.6,8.4C82.7,256,81.9,256,81,256z"/>
	<path class="st3" d="M183,256c-1.4-11.3-2.3-22.7-7.1-33.2c-0.3-0.7-0.5-1.6-1.4-1.9c0.1-1.6-0.6-3.2,0-4.8c0.2,0,0.3,0,0.5,0
		c1.7,5.3,3.9,10.4,5.5,15.8c2.1,7.1,3,14.3,3.9,21.5c0.1,0.9,0.3,1.8,0.5,2.7C184.3,256,183.6,256,183,256z"/>
	<path class="st3" d="M188,256c-0.6-7.5-1.7-15-3.3-22.4c-1.7-7.6-0.5-15.4-0.6-23.2c0.3-0.3,0.5-0.6,0.8-1c0.8,2.6,0.4,5.3,0.1,7.9
		c-0.7,7,0.2,13.7,1.9,20.4c1.5,6,1.5,12.1,2.5,18.2C189,256,188.5,256,188,256z"/>
	<path class="st3" d="M79.1,228.5c-1.7,5.4-1.9,11.1-3,16.7c-0.7,3.6-0.3,7.3-1.5,10.8c-0.3,0-0.7,0-1,0c0.9-1.5,0.3-3.1,0.3-4.6
		c0-7.9,2.4-15.5,2.9-23.3c0.6-0.2,0.7-0.6,0.8-1.1C78,227.5,78.5,228,79.1,228.5z"/>
	<path class="st8" d="M177.5,256c-4,0-8,0-12,0c1.9-2.4,4.7-3.7,6.7-5.9c1-1,1.7-0.4,2.5,0.4C176,252.1,176.6,254.1,177.5,256z"/>
	<path class="st9" d="M177.5,256c-0.8-1.9-1.5-3.8-2.9-5.5c-0.7-0.8-1.5-1.5-2.5-0.4c-2,2.2-4.8,3.5-6.7,5.9c-0.7,0-1.3,0-2,0
		c2.6-3,5.7-5.2,9-7.2c1.2-0.8,1.3-1.4,0.9-2.5c-0.8-2-1.1-4.1-0.5-6.2c0.2,0,0.4,0,0.5,0c1.3,5.4,3.2,10.7,5,16
		C178.1,256,177.8,256,177.5,256z"/>
	<path class="st5" d="M115.5,256c0.1-4.5-0.2-9,0.5-13.5c0.3-0.5,0.4-1.3,1-1.2c0.8,0.1,0.9,1,1.1,1.6c-1.1,2.4-0.3,4.9-0.5,7.4
		c-0.1,1.9,0,3.8,0,5.7C116.8,256,116.2,256,115.5,256z"/>
	<path class="st8" d="M104.5,256c-1.3,0-2.7,0-4,0c0-1.1,0.1-2.2,0.1-3.3c1.3-0.4,2.6-0.9,3.9-1.3
		C104.5,252.9,104.5,254.4,104.5,256z"/>
	<path class="st5" d="M104.5,256c0-1.5,0-3,0-4.6c-0.1-0.7,0.3-1,1-0.9c0.8,1.8,0.3,3.7,0.5,5.5C105.5,256,105,256,104.5,256z"/>
	<path class="st5" d="M100.6,252.7c0,1.1-0.1,2.2-0.1,3.3c-0.7,0-1.3,0-2,0c0-1.1,0-2.3,0.1-3.4C99.2,252.6,99.9,252.6,100.6,252.7z
		"/>
	<path class="st9" d="M184.9,209.5c-0.3,0.3-0.5,0.6-0.8,1c-0.6-1.9-0.7-4-1.8-5.8c-0.3-0.8-0.5-1.6-1-2.2c-1.3-1.9-3-1.4-4.6-0.6
		c-1.4,0.8-2.6,1.8-1.3,3.7c-0.1,0.7-0.2,1.3-0.3,2c-1.6,1.2-1.1,2.9-1.2,4.5c-1.1,0.1-0.8-1-1.3-1.5c-0.1-0.6-0.2-1.3-0.3-1.9
		c0-0.5,0-1,0.1-1.6c2.1-6.1,2.1-7.1-0.6-10.5c-1.2,1.5-2.3,3-3.7,4.4c-0.9,1-1.7,3.1-2.8,2.6c-1.4-0.6-0.3-2.7-0.4-4.1
		c0.6-1.5,1.1-3.1,0.8-5.1c-1.1,1.1-1.5,2.1-1.4,3.3c-0.8,0.9-1.6,1.9-2.3,2.8c-2.5,3.2-2.5,3.2-0.2,6.5c-0.2,0.7-0.3,1.3-0.5,2
		c-0.3,0.2-0.6,0.5-0.9,0.7c-0.2-0.4-0.4-0.8-0.6-1.2c0.4-0.3,0.8-0.7,0.5-1.2c-1.8-2.8-3.5-5.7-6.9-6.9c-1.5-0.7-3-1.4-4.5-2
		c-4.6-1.7-9.2-2.7-14.1-1c-4.8,1.6-9.8,2.7-14.9,2.6c-1,0-1-1-1.6-1.5c-0.9-0.7-1.7-1.6-2.6-0.1c-0.7,0.2-1.2,0.7-1.4,1.3
		c-2.3-0.7-4.7-1.2-6.8-2.4c-1-0.6-2-0.6-3.1-0.1c-1.7,0.7-3.4,1.3-5.1,2c-4,1.1-6.4,3.7-7.1,7.8c-0.3-0.9-0.6-1.8-0.9-2.6
		c1.4-3,0.2-5.4-1.6-8c-2.6,3.1-4.6,6.3-7.6,9.3c-0.2-4.5-0.9-8.6-2-12.6c-0.7-2.3-1.4-2.7-3.9-1.7c-0.5,0-0.9,0-1.4,0
		c-0.3-0.1-0.7-0.1-1-0.2c-1.7-0.7-3.4-1.1-4,1.4c-0.8-0.7-1.6-1.1-2.4-0.1c-0.4,0-0.8,0.1-1.1,0.1c0,0,0,0,0,0
		c0-0.3-0.2-0.5-0.5-0.5c-0.6,0-1.2,0-1.8,0c-0.9,0-1.9-0.5-2.5,0.6l0,0c-0.7-0.4-1.4-0.7-2.2-0.6c-2.5,0.3-4.7-0.7-6.9-1.8
		c-2.8-1.4-4.1-4.3-3.2-7.3c1.4-5,1.7-10.3,4.2-15.1c0.2-0.4,0.6-0.8,0.3-1.4c-2.2-3.4-1.4-7.4-2.3-11.1c-0.2-0.7-0.2-1.4-0.7-2
		c-1.1,0.3-0.3,1.4-1.2,2c-2.5-11.3-5.1-22.4-5.7-33.9c-2.7,4.8-4.7,9.8-6.8,15.4c-1.5-3.4-2-6.5-2.5-9.6
		c-1.6-10.9-0.4-21.7,1.6-32.5c2.8-15.5,9.6-28.9,20.1-40.5c0.3-0.3,0.5-0.7,0.9-0.9c3-1.4,2.7-3.4,1.5-6.1
		c-3.8-8.8-1.2-17.1,2.7-25.1c0.7-1.4,1.7-2.7,2.4-4.1C68.4,9.6,76,6.5,85.2,6.8C86.8,6.9,87.3,6,88,4.9c2.6-4.3,2.8-5.3,8.7-2.8
		c1.3,0.5,2.5,1.3,3.7,2c0,0.3,0,0.6,0.1,0.9c-0.4-0.2-0.7-0.3-1.1-0.5c-0.1-0.1-0.2-0.1-0.3-0.1c-1.8-0.7-3.7-1.5-5.5-2.2
		c-0.9-0.4-1.7-0.2-2.4,0.6c-4.5,4.8-4.3,10.6-2.7,16.1c1.5,5,4.2,9.7,8.5,13.2c0,0.2,0,0.5,0,0.7c-8.2,2.3-15.9,5.8-23.4,9.8
		C62.8,48.3,55.1,57.3,49,67.5c-10.8,17.9-13.2,38.1-13.1,58.6c0,1.8,0,3.7,1.3,5.6c1-2.9,2.1-5.4,2.6-8.1c2.5-4.1,5-8.1,4.8-13.2
		c-0.1-2.1,0.2-4.1,0.3-6.2c0.2-2.9,0.7-5.8,0.2-8.8c0.4-2.2,0.9-4.4,2.4-6.3c-2.4,19.2-1.2,38.2,1.5,57.2c1.1-1.7,1.3-3.6,1.5-5.4
		c1.1-7.1,3.7-13.7,7-20.1c0.4,0.7,0.4,1.4,0,2.1c-1.9,3.8-2.3,7.9-3.3,11.9c-1.1,4.2-1.5,8.4-0.3,12.7c0.3,1.1,0.5,1.1,1.1,0.2
		c0.9-0.6,1.3-1.7,1.8-2.6c1.9-3.6,3.5-7.4,5.7-10.9c0.4,0.2,0.7,0.4,1.1,0.5c-1.3,2-0.2,3.9,0.5,5.8c0.9,1,1,2.2,0.9,3.5
		c0.3,6.6,0.3,13.2-0.8,19.9c-1,5.6,0.8,11.1,4.8,15.2c3,3.1,6.8,5.7,10.8,7.4c3.1,1.4,6.4,1.8,9.5-0.2c1.5-1,3.2-1.1,4.2,0.4
		c1.1,1.6-0.8,2.1-1.8,2.9c0,0,0,0.1,0,0.3c2.5,0.6,5,1.5,7.6,1.7c15.4,1.1,30.7,1.1,45.8-2.5c6.9-1.6,13.6-3.6,19.9-6.9
		c1.7-0.9,2.5-1.9,2.4-3.8c-0.1-2.9,0-5.8,0.2-8.7c0.4-8.9,0.4-17.8,0.3-26.7c-0.2-1.8-0.3-3.6-0.5-5.4c0.3,0.3,0.6,0.5,0.9,0.9
		c2.4,3.3,5.2,6.2,8.2,9c0.4,0.4,0.8,1,1.4,0.7c0.8-0.4,0.3-1.1,0.2-1.7c-0.5-2-1.5-3.8-2.7-5.6c-2.3-3.3-4.5-6.7-6.7-10.1
		c0.8-1,1.7,0.1,2.6,0c2.7,3.5,5.4,6.9,8.2,10.4c0.1,1.3,1.1,2.2,1.7,3.2c1.7,2.7,3.2,5.6,3.7,8.8c-0.5-0.2-1-0.3-1.5-0.5
		c-0.1-0.1-0.1-0.2-0.1-0.3c0.1-1.3,0-2.4-1.6-2.8c-2.1-0.5-0.8,1.8-1.8,2.1c-3.3-2.6-6.2-5.8-10-7.8c0,0.6,0,1.1,0,1.7
		c0,6.8,0.2,13.6,0,20.4c-0.2,7.3-0.2,14.6-1.5,21.8c-0.5,2.9-0.7,5.9-1,8.9c0,0.5-0.2,1.1,0.4,1.3c0.2,0.1,0.7,0,0.9-0.2
		c1.5-2.5,4.2-4.1,4.9-7c2.2-1.5,2.8-4,4.1-6.1c1.9-3.2,4.1-6.2,4.8-10c0.6,0.8,1.4,0.7,2.2,0.3l0.1,0c-0.3,0.9-0.8,1.8-0.7,2.8
		c0,0.1,0,0.3,0,0.4c-0.7,1.6-2.5,2.7-2.3,4.8c-0.1,0.4-0.1,0.7-0.2,1.1c-1.2,0-1.6,0.9-2.1,1.8c-1.4,2.2-2.4,4.7-4.3,6.6
		c-1.3,1.3-1.5,5.8-0.4,7.1c0.2,0.2,0.6,0.5,0.8,0.4c1.3-0.6,3,0,4.1-1.1c1.3,0.8,2.1,1.2,2.4-1c0.7-5.2,1.8-10.4,4.5-15
		c0.9-1.6,2.9-2.6,3-4.7c0.4,0,0.9,0,1.3,0c-3.4,7.6-6.7,15.1-7.1,23.7C183.7,204.7,184.9,207,184.9,209.5z M83.1,190.9
		c-0.8-0.2-2-1-1.8,0.8c0.6,3.5,1.8,6.9,2,10.8c1-0.9,1.3-1.6,1.2-2.5c2-1.2,3.1-3.3,4.4-5.1c1-1.6,0.7-2.8-1.4-3.4
		C86,191.1,84.6,190.9,83.1,190.9z M80.1,17.6c7.7-0.5,6.5,0.7,6.4-6.3c0-0.4-0.2-0.8-0.3-1.2C85.9,9.5,85.5,9,84.9,9
		c-4.2,0-8.5-0.8-12,2.5c-0.1,0.2-0.3,0.4-0.4,0.6c-2.4-0.2-3.6,1.6-4.7,3.1c-4.2,5.6-7.2,11.8-8.5,18.7c-0.8,4.1-1.3,8.2,0.4,12.3
		c1.4,3.3,1.8,3.4,4.3,1.1c0.6-0.6,1.2-1.1,1.8-1.7c0.7-0.2,1.2-0.6,1-1.4c-0.3-1.6-0.5-3.2-0.8-4.9c-0.1-0.9-0.7-1.3-1.5-1.3
		c-0.5-0.2-1-0.4-1.6-0.7c0.8-0.7,1.9-0.1,2.4-1.4c0.9-2.7,2.1-5.4,3.3-8c1.1-2.4,2.3-4.8,4.4-6.5c1.5,0.2,2.3-0.5,2.5-2
		c0.2-0.1,0.4-0.3,0.6-0.4C77.5,19,79.1,19.1,80.1,17.6z M56,160.9c0.8,5.6,3,10.8,5,16.1c1.4,3.7,2.9,7.4,4.3,11.1
		c0.4,1.1,1.1,1.6,2.3,1.4c0.9-0.1,2.3-0.1,2.3-1.1c0-2.3,0.8-4.8-1.4-6.7c-3.1-2.8-5.1-6.3-5.6-10.5c0.1-1.3,0.1-2.6,0.2-4
		c0.2-3.9-0.4-7.8,0.6-11.6c1.2-4.7,0-9.4-0.8-14c-0.1-0.5-0.1-1.3-0.8-1.4c-1-0.2-1,0.8-1.2,1.3c-0.7,2-2.1,3.6-3,5.4
		c-1.3,2.6-4,4.6-3.3,8C54.9,156.9,55,159,56,160.9z M93.8,32c-3.3-3.4-5.2-7.2-6.8-11.2c-0.3-0.7-0.7-1.2-1.6-1.3
		c-7.5-0.5-10.7,1-14.4,8C68.7,31.6,68,36.3,68,41c0,2.4,0.6,2.8,2.6,1.5C77.7,37.9,85,33.8,93.8,32z M167.3,185.1
		c0.1-1.4-0.2-2.3-1.9-1.3c-1.9,1.1-3.9,2.2-5.9,3.2c-5.5,3-11.5,4.3-17.5,5.5c-0.7,0.1-1.7,0.1-1.7,1.1c0,0.7,1,0.8,1.6,0.9
		c1.9,0.4,3.9,0.8,5.8,1.2c3.7,0.9,3.7,1,5.1-2.6c0.2-0.6,0.3-1.4,1.2-1.4c0.9,0,0.8,0.9,1.1,1.5c1.3,2.1,1.1,4.7,2.2,6.8
		c1.1,2.1,1.6,2.2,3,0.3c0.7-1,1.4-2.1,2-3.1C164.7,193.4,167.1,189.7,167.3,185.1z M56.8,174c-1.9,3.1-3.2,5.9-3.3,9.1
		c-0.1,2.5,1,4,3.5,4.6c1.3,0.3,2.6,0.5,3.9,0.7C61.9,182.9,58.8,178.8,56.8,174z M105.8,194.8c-3.4-1.2-6.2-0.8-9-1.4
		c-1.8-0.4-4.8-1.6-5.3-0.5c-0.8,1.7,0.7,4,1.4,6.1c0.2,0.7,0.5,1.1,1.2,0.6C97.5,197.3,101.5,196.6,105.8,194.8z M73.7,188
		c0.2,0,0.9-0.1,0.8-1c0-1.5-1.3-1.2-2.2-1.4c-0.6-0.2-1,0.1-0.8,0.8C71.8,187.2,72,188.2,73.7,188z M127.3,194.6
		c-2.2-1-4.5,0-6.8,0.1C122.7,195.7,125,194.7,127.3,194.6z M62.2,185.7c-0.2,1.2-1.3,2.3,0,3.4c0.4,0.3,0.8,0.2,1-0.2
		C63.8,187.6,63.7,186.6,62.2,185.7z"/>
	<path class="st6" d="M190.9,178.5c-0.4,0-0.9,0-1.3,0c-1.8-0.6-3.6-1.7-5.6-0.5c-0.1-1,0.4-1.9,0.7-2.8c2.2,1.7,4.6,2,7.2,0.9
		c2.1-0.8,4.2-1.4,6.3-2.3c2.4-1,4.1-2.6,5.3-4.9c0.9,0.1,1.4,0.7,1.9,1.4c-2.5,2.9-5.6,4.8-9.2,6.1
		C194.5,177.2,192.7,177.8,190.9,178.5z"/>
	<path class="st7" d="M59.5,192.1c0.8-0.1,1.5,0.1,2.2,0.6c-0.7,3.6,0.3,6.6,3,9.2c0.9,0.9,1.6,2.1,2.4,3.1
		c-0.4,0.2-0.8,0.5-1.2,0.7c0,0,0.1,0,0.1,0c0-0.4-0.2-0.6-0.6-0.5c0,0-0.1,0.1-0.1,0.1c0-0.1,0.1-0.3,0.1-0.4
		c-0.1,0.1-0.2,0.1-0.4,0.2C61.2,201.5,59.1,197.3,59.5,192.1z"/>
	<path class="st6" d="M65.9,205.7c0.4-0.2,0.8-0.5,1.2-0.7c0.8,0,0.9-0.8,1.3-1.1l0.2,0.2c0,0.9-0.1,1.7-0.5,2.4
		c-0.1,0.4-0.2,0.7-0.3,1.1c-0.3-0.2-0.5-0.4-0.8-0.5c-0.2,0-0.3,0-0.5,0c0,0,0.1,0,0.1,0C66.3,206.5,66.1,206.1,65.9,205.7z"/>
	<path class="st10" d="M100.5,5.1c0-0.3,0-0.6-0.1-0.9c0.9,0.4,1.8,0.7,2.6,1.4c0,0.4,0,0.7-0.1,1.1C102.1,6.2,101.2,5.9,100.5,5.1z
		"/>
	<path class="st9" d="M65,205c0.1-0.1,0.2-0.1,0.4-0.2c0,0.1-0.1,0.3-0.1,0.4C65.1,205.2,65,205.1,65,205z"/>
	<path class="st9" d="M65.3,205.1c0.4,0,0.6,0.2,0.6,0.5C65.6,205.6,65.4,205.5,65.3,205.1z"/>
	<path class="st5" d="M179.6,141.5c-2.7-3.5-5.4-6.9-8.2-10.4c-2-2.1-4-4.3-5.9-6.4c-0.2,0.2-0.4,0.3-0.5,0.5c0.9,2.3,2.1,4.3,3.9,6
		c2.2,3.4,4.4,6.8,6.7,10.1c1.2,1.7,2.1,3.5,2.7,5.6c0.2,0.6,0.6,1.3-0.2,1.7c-0.6,0.3-1-0.4-1.4-0.7c-3-2.8-5.8-5.7-8.2-9
		c-0.2-0.3-0.6-0.6-0.9-0.9c-0.7-1.5-1.8-2.7-3-3.9c-4.9-9-9.8-18.1-13.9-27.5c-0.2-0.5-0.4-1.2-1.1-1.1c-0.7,0.1-0.8,0.8-1,1.3
		c-1,2.6-2.1,5.3-3.1,7.9c-2,4.3-4.1,8.6-6.7,12.6c-0.7,1.1-1.5,2.1-3,2.3c-0.6-2.2,0.5-4.3,0.2-6.4c1.6-9.8,2.4-19.6,1.3-30.2
		c-1.1,2-1,3.5-0.9,4.9c0.2,7.5-0.9,14.7-3.4,21.7c-6.5,12.1-12,24.8-21.9,35c-5.3-6.8-11.1-13.4-15-21.5c-2.6-5.5-4.9-11.1-6.4-17
		c-1.4-8.3-4.2-16.4-4.2-24.9c-1.1,1.9-0.8,3.8-0.7,5.8c0.4,5.9,1.3,11.9-0.5,17.7c-1.5,4-3,8-4.5,12.1c-1.2,3.5-2,7.1-3.6,10.5
		c-0.6-0.7-0.9-1.6-1.1-2.5c-2.1-7.7-3-15.6-4.4-23.5c-0.1-0.5,0.3-1.4-0.6-1.5c-0.9-0.1-0.9,0.8-1,1.4c-2.1,7.8-4.2,15.6-6.4,23.3
		c-2.2,3.5-3.8,7.3-5.7,10.9c-0.5,0.9-0.8,2-1.8,2.6c-1-11,4.2-20.9,5.6-31.9c-2.1,1.3-2.9,2.9-3.1,4.9c-3.4,6.3-5.9,12.9-7,20.1
		c-0.3,1.8-0.4,3.7-1.5,5.4c-2.7-19-3.8-38-1.5-57.2c-1.4,1.9-1.9,4.1-2.4,6.3c-0.8,0.5-0.8,1.4-1.1,2.2c-1.6,4.6-2.2,9.3-3.1,14.1
		c-0.7,3.9-1.6,7.8-1.2,11.8c-0.5,2.7-1.6,5.2-2.6,8.1c-1.2-1.9-1.3-3.8-1.3-5.6c0-20.5,2.4-40.7,13.1-58.6
		c6.1-10.1,13.8-19.1,24.6-24.9c7.5-4,15.2-7.5,23.4-9.8c2.3,1.4,4.8,2.4,7.5,2.7c0.2,1.1-0.6,1.8-1.2,2.5c-1.8,2.1-3.6,4.2-5.5,6.2
		C93.9,49.2,91.4,54.7,91,61c-0.2,3.5,1.9,5.3,5.5,5.1c2.5-0.2,4.6-1.2,6.7-2.5c2.6-1.6,4.8-3.8,7.2-5.7c1.9-0.8,2.9-2.7,4.6-3.7
		c1-0.7,1.7-0.8,2.5,0.2c1.7,2.2,3.6,4.4,5.3,6.5c2,2.4,4.3,4.3,7.2,5.6c1,0.4,2,0.9,3-0.1c4.7,0.1,6.9-2,7-6.7
		c0.2-6.5-2.8-11.6-6.7-16.4c0-0.2-0.1-0.3-0.2-0.4c-0.7-1.4-2.1-2.2-2.5-3.8c3.3-0.3,5.8-2.8,9-3.2c4.3-0.5,8.7-0.8,13-1.2
		c4.3,0.4,8.1,2.5,12.1,3.8c7,2.3,13.4,5.8,18.8,10.6c10.2,8.8,19,18.6,23.8,31.8c4.7,13,5.5,26.3,4.4,39.8c-0.3,3.8,0,7.6-1.1,11.3
		c-0.2-0.1-0.4-0.3-0.6-0.4c-3.4-3.5-6.1-7.6-10.3-10.3c-0.5-0.3-0.6-1-0.7-1.5c-0.6-2.3-1.2-4.7-2-6.9c-0.9-2.4-1.2-4.9-2.7-7.1
		c-0.4-1.3-0.8-2.6-1.3-3.9c-0.8-2.8-0.8-5.9-3.9-7.6c0.7,2.5,1.3,5.1,2,7.6c2.1,12.7,3.3,25.6,5.3,38.4c-0.4-0.5-0.9-0.9-1.3-1.4
		c-0.1-0.3-0.1-0.6-0.2-0.9c0-0.3,0-0.7-0.1-1c-2.4-5.1-4.7-10.2-7.4-15.2c-0.9-1.7-1.8-3.5-3.7-4.6c-0.3-0.5-0.4-1.4-1.3-1.2
		c-0.5,0.1-0.4,0.7-0.3,1.1c0.9,2.8,0.6,5.7,1.1,8.6c1.2,7.4,2,14.8,2.4,22.2c-1.2-0.4-1.4-1.5-2.1-2.4
		C182.3,144.2,181.9,141.9,179.6,141.5z M56.6,81.2c0.1-3.2-2.1-5.9-5.1-6c-2.8-0.1-5.7,2.4-5.9,5.3c-0.2,2.9,2.3,5.4,5.5,5.5
		C54.3,86.1,56.4,84.2,56.6,81.2z M63.8,83.5c-1.5,0-2.5,0.4-2.3,1.7c0.3,1.6,1.2,2.7,2.9,2.8c1,0,1.6-0.4,1.5-1.5
		C65.8,85,65.3,83.6,63.8,83.5z"/>
	<path class="st11" d="M118.1,22.1c1.6-2.6,3.4-5.1,4.9-7.7c4.1-7.5,11.2-10.8,18.8-13.1c2.8-0.8,5.9-0.4,8.9-0.5
		c0.4,0,0.5,0.4,0.5,0.7c-0.1,1.3-0.2,2.5-0.4,3.8c-0.7,2.4-0.1,4.9-0.2,7.4c-0.2,4.6-1,9.3-4,12.8C140.9,32,134.1,36.3,125,35
		c-0.2-2.4,0.9-5.1-1.6-7c-0.6-1.1-1.6-1.6-2.5-2.1c-0.9-0.8-1.9-1.6-2.8-2.4C118.1,23,118.1,22.6,118.1,22.1z"/>
	<path class="st12" d="M173.3,19.2c-1.3,0-0.6,0.7-0.3,1.1c5.5,5.1,4.1,11.4,2.9,17.6c-0.5,2.6-1.4,2.8-3.8,1.7
		c-8.6-3.9-17.2-8-26.6-9.7c0.1-1,0.9-1.5,1.5-2.2c1.5-2,3-4,3.5-6.5c0.3-1.4,0.8-2.5,1.6-3.6c2-0.7,4-1.6,6.2-1.7
		c4.6-0.2,8.8,1,12.9,3.1C171.7,19.4,172.5,20.8,173.3,19.2L173.3,19.2z"/>
	<path class="st11" d="M203.6,169c-1.2,2.3-3,4-5.3,4.9c-2.1,0.8-4.2,1.4-6.3,2.3c-2.6,1.1-5,0.8-7.2-0.9c0,0-0.1,0-0.1,0
		c-1.9-2.5-3.1-5.4-3-8.5c0-4.4-2-8.7-0.4-13.3c0.6-1.6,1-1.6,2.1-0.7c0,0.1,0,0.2,0.1,0.3c0.5,2.2,1.1,4.4,2,6.5
		c0,0.6-0.1,1.2,0.5,1.6c0.4,0.2,0.5-0.2,0.5-0.6c0.8-1.4,1-2.9,1.1-4.5c0.6-0.6,0.4-1.3,0.4-2c0.5-0.3,1.1-0.3,1.7-0.1
		c4.2,1.5,8.5,1,12.8,1C202,159.7,201.6,164.4,203.6,169z"/>
	<path class="st8" d="M205.8,131.6c0.1,1.4,0.2,2.8,0.4,4.2c0.2,1.5-0.3,3.3,2.2,3.7c1.2,0.2,1.3,3.1,0.1,4.3
		c-2.7,2.7-4.1,6.2-5.5,9.6c-2.8,0.1-5.6,0.1-8.4,0.2c-1.3-0.2-2.5-0.5-3.8-0.7c-2.4-0.3-2.9-1.9-2.8-4c0.1-1.7,0-3.3,0-5
		c0-2.8,0-5.7,0-9.1c2.4,2.1,2.9,4.8,5,6.1c2.4,2.9,5.3,5.3,8.7,8c-0.3-1-0.3-1.4-0.4-1.8c-1.3-5.7-2.6-11.3-3.3-17.1
		c-0.1-1.1-0.3-2.3,1.5-2C201.4,129.5,203.6,130.6,205.8,131.6z"/>
	<path class="st5" d="M173.3,19.2C173.3,19.2,173.2,19.2,173.3,19.2c-1-1.8-2.8-2.4-4.4-3.1c-5.5-2.5-11.1-1.7-16.8-0.7
		c0-2.4,0-4.8,0-7.1c6.1-0.8,12.1-1.4,18.1,0.7c3.9,1.4,7,3.8,10.1,6.2c0.8,0.6,0.7,1.1-0.1,1.7c-1,0.7-2.5,0.8-3.2,2.2c0,0,0,0,0,0
		C175.8,18.9,174.6,19.8,173.3,19.2z"/>
	<path class="st5" d="M178.2,25.9c-0.5-1.2-0.9-2.5-1.5-3.7c-0.6-1.2-0.6-2.2,0.3-3.2c0,0,0,0,0,0c0.6-0.2,1.3-0.3,1.9-0.5
		c3.7-1.4,4.3-1.1,5.7,2.6c2.8,7.2,2.3,14.2-1.2,21.1c-0.2,0.3-0.6,0.6-0.8,0.8c-1.6-2.7-2.1-5.7-2.7-8.7c-0.4-2.1,0.4-4.3-0.9-6.2
		c0-0.3,0-0.6-0.1-0.9C179,26.5,178.7,26.1,178.2,25.9z"/>
	<path class="st13" d="M207.3,161.7c0-3.5,0.6-6.7,2.4-9.7c0.3-0.5,0.5-1.4,1.4-1.1c0.7,0.2,0.4,1,0.4,1.5c0.1,4.1-1,7.9-3.6,11.2
		c-0.6,0.8-0.7,2.1-1.4,3c-0.3,0.4-0.5,1.2-1.2,1.2c-0.8-0.1-0.8-0.9-1.1-1.5c-0.7-1.3-0.3-2.8-0.5-4.2c-0.5-5.2,0.7-10.1,3.3-14.6
		c0.1-0.2,0.2-0.5,0.4-0.6c0.8-0.7,1.5-2.6,2.8-1.5c1.2,1,1.4,2.7,0.1,4.2C207,153,206.3,157.2,207.3,161.7z"/>
	<path class="st10" d="M194.2,105.9c1.5,2.1,1.8,4.7,2.7,7.1c0.9,2.2,1.4,4.6,2,6.9c0.2,0.6,0.2,1.2,0.7,1.5
		c4.1,2.8,6.9,6.9,10.3,10.3c0.2,0.2,0.4,0.3,0.6,0.4c0,1.8-0.5,3.5-1.4,5.4c-1.9-1.8-1.2-4.4-2.6-6.1c-1.4-3-4.3-3.8-7.1-4.4
		c-1.5-0.7-2.4-1.9-2.6-3.6c-0.1-1.5-0.6-3.1-0.7-4.6C195.7,114.4,194.4,110.3,194.2,105.9z"/>
	<path class="st6" d="M152.1,8.3c0,2.4,0,4.8,0,7.1c0,0.8,0,1.5,0,2.3c-0.8,1.1-1.3,2.2-1.6,3.6c-0.5,2.5-1.9,4.5-3.5,6.5
		c-0.6,0.7-1.4,1.2-1.5,2.2c0.3,1.3-2.5,0.7-1.5,2.5c-4,0.8-7.6,3.1-11.7,3.8c-1.5,0.2-3.2-0.1-4.4,1.3c-0.1,0-0.3,0-0.4,0
		c-0.5-0.4-1-0.8-1.5-1.2c-0.3-0.4-0.7-0.8-1-1.3c9.1,1.2,15.9-3,21.5-9.5c3-3.5,3.8-8.2,4-12.8c0.1-2.5-0.5-5,0.2-7.4
		C151.7,6.1,152.1,7.1,152.1,8.3z"/>
	<path class="st10" d="M127.9,37.5c1.2-1.4,2.9-1,4.4-1.3c4.1-0.7,7.7-2.9,11.7-3.8c2.9,0.5,5.9,1,8.6,2.3c-4.3,0.4-8.7,0.7-13,1.2
		c-3.2,0.4-5.7,2.8-9,3.2C129.4,39.1,129.2,37.6,127.9,37.5z"/>
	<path class="st6" d="M190.7,152.9c1.3,0.2,2.5,0.5,3.8,0.7c0.3,1.1,1.3,0.8,2.1,0.9c2,0.3,3.9-0.7,5.9-0.5c0,0.3,0,0.6,0,0.9
		c-4.3,0-8.7,0.4-12.8-1c-0.6-0.2-1.1-0.2-1.7,0.1c-0.8,0.5-1.4,1.1-0.4,2c-0.1,1.6-0.3,3.1-1.1,4.5c-0.6-0.1-0.1-1.2-0.9-1
		c-0.9-2.1-1.5-4.3-2-6.5c0.5,0.2,1,0.3,1.5,0.5c0.4,0.5,0.2,1.4,1.3,1.8c0.2-0.8,0.5-1.5,0.7-2.3C188.2,153,189.4,153,190.7,152.9z
		"/>
	<path class="st10" d="M178.9,28c1.4,1.9,0.5,4.2,0.9,6.2c0.6,3,1.1,6,2.7,8.7c-0.3,0-0.7,0-1,0l0,0c-0.2-0.2-0.4-0.4-0.5-0.5
		c0,0,0,0,0,0c-0.2-0.4-0.6-0.5-1-0.5c0,0,0,0,0,0c-0.2-0.2-0.3-0.3-0.5-0.5c0,0,0,0,0,0c-0.1-0.6-0.4-1-1-1l0,0
		c-0.2-0.4-0.6-0.5-1-0.5l0,0c-0.4-1.1-0.6-2.2-0.1-3.3C178.6,33.9,178.2,30.9,178.9,28z"/>
	<path class="st9" d="M199.5,127c2.9,0.7,5.7,1.4,7.1,4.4c-0.3,0.1-0.6,0.1-0.8,0.2c-2.2-1-4.4-2.1-6.3-3.5
		C199.4,127.7,199.5,127.4,199.5,127z"/>
	<path class="st10" d="M181.5,43c0,0.1,0,0.2,0,0.2c-0.1,0.6,0,1.2-0.9,1.2c-0.7,0-4.5-2.8-4.5-3.3c0-0.9,0.7-1,1.4-1.1c0,0,0,0,0,0
		c0.2,0.4,0.6,0.5,1,0.5c0,0,0,0,0,0c0,0.7,0.4,1,1,1c0,0,0,0,0,0c0.2,0.2,0.3,0.3,0.5,0.5c0,0,0,0,0,0c0.2,0.4,0.6,0.5,1,0.5
		c0,0,0,0,0,0C181.1,42.7,181.3,42.9,181.5,43L181.5,43z"/>
	<path class="st7" d="M202.5,154c-2-0.2-3.9,0.8-5.9,0.5c-0.8-0.1-1.7,0.3-2.1-0.9c2.8-0.1,5.6-0.1,8.4-0.2
		C202.7,153.6,202.6,153.8,202.5,154z"/>
	<path class="st10" d="M178.2,25.9c0.5,0.2,0.8,0.6,0.6,1.2C178.2,26.9,178,26.5,178.2,25.9z"/>
	<path class="st7" d="M173.5,240c-0.2,0-0.4,0-0.5,0c-0.9-0.9-0.5-2.2-1.2-3.3c-1.2,0.8-2.5,1.7-3.7,2.5c0-0.3,0-0.7,0-1
		c0.4-0.5,1.6-0.7,1.3-1.6c-0.3-0.9-1.3-0.5-2-0.5c-2.5,0.1-4.7-0.5-6.6-2.2c-0.6-0.5-1.4-1.4-2.5-1.3c0,1.6,1.3,2.2,1.8,3.3
		c-0.2,0.3-0.4,0.7-0.6,1c-1.1-0.9-1.7-2.2-2.4-3.5c-0.3-0.6-0.5-1.5-1-1.7c-4.3-1.6-2.1-5-2.3-7.8c0.2,0,0.4,0,0.6,0.1
		c0-0.1,0.1-0.2,0.2-0.2c0,1.4-0.1,2.8-0.1,4.2c-0.5,0.6-0.5,1.1,0.1,1.5c1.4,0.2,3.2,1,4-0.1c0.9-1.4,0.5-3.4,0.2-5.1
		c-0.3-1.5-1.9-0.4-2.7-0.9c0-0.1,0-0.3,0-0.4c0.2-0.3,0.5-0.7,0.6-1c1.7-6.1,5.8-7.4,11.9-7c1.1,0.1,2.3,0.5,2.6,1.8
		c-0.4,0.1-0.7,0.2-1.1,0.3c-0.6-0.2-1.3-0.4-1.9-0.5c-5-1.2-8-0.1-10,3.7c-0.3,0.6-0.9,1.2-0.3,1.8c0.7,0.7,1.6,0.3,2.3-0.2
		c0.4-0.3,0.6-0.8,0.9-1.2c1.6-2.3,3.8-3.1,6.5-2.7c1.2,0.2,2.4,0.7,3.7,0.4c0.3,0,0.6,0,0.9,0l0,0c-0.3,1.8,0.8,3.7-0.1,5.5
		c-1.4-2.3-4.5-3.4-6.9-2.3c-2,0.8-3.4,4-2.8,6.6c0.8,4,4.7,5,8.9,2.2c1.1,0,1,1.9,2.3,1.5C173.4,234.6,173.4,237.3,173.5,240z"/>
	<path class="st7" d="M147.5,247c-1.1-0.8,0-2.4-1.2-3.2c0.3-1.3,0.5-2.6-0.3-3.9c0.8-6,0.5-11.9-0.2-17.8c0.5-0.2,1-0.4,1.5-0.6
		c1.1,4.1,0.4,8.2,0.9,12.3c0.3,2.3,0.4,4.6,0.5,6.9C149,242.9,148.5,245,147.5,247z"/>
	<path class="st8" d="M154.4,227.9c0-1.4,0.1-2.8,0.1-4.2c0,0,0,0,0,0c0.5-0.1,1-0.2,1.5-0.3c0.9,0.4,2.5-0.7,2.7,0.9
		c0.3,1.7,0.7,3.7-0.2,5.1c-0.7,1-2.6,0.2-4,0.1C154.5,229,154.4,228.5,154.4,227.9z"/>
	<path class="st7" d="M159.9,208.5c0.2,0.4,0.4,0.8,0.6,1.2c-4.3,3.4-8.6,6.9-12.5,10.8c-0.2-0.5,0.6-1.1,0-1.6
		C151.8,215.2,155.1,211,159.9,208.5z"/>
	<path class="st7" d="M172.7,210.5c0.4,0.5,0.2,1.6,1.3,1.5c0.2,1.3,0.3,2.7,0.5,4c-0.7,1.6,0,3.2,0,4.8c-0.1,0.6-0.3,1.1-0.4,1.7
		c-0.8-1.3-0.6-3.1-2-4c0,0,0,0,0,0c0-0.5,0-0.9,0-1.4c1-0.7,1-1.8,0.9-2.9C172.7,212.9,172.4,211.7,172.7,210.5z"/>
	<path class="st6" d="M172.5,207c0,0.5,0,1-0.1,1.6c-3.7-1.1-7.3-0.6-10.9,0.4c0.2-0.7,0.3-1.3,0.5-2c0.5,0.4,1,0.5,1.6,0.4
		C166.5,206.6,169.5,207,172.5,207z"/>
	<path class="st10" d="M168,238.1c0,0.3,0,0.7,0,1c-2.8,1.6-6.3,0.6-8.7-2.4c0.2-0.3,0.4-0.7,0.6-1
		C162.3,237.5,164.6,239.7,168,238.1z"/>
	<path class="st6" d="M148,218.9c0.6,0.5-0.2,1.1,0,1.6c-0.2,0.3-0.4,0.7-0.7,1c-0.5,0.2-1,0.4-1.5,0.6c-0.1-0.2-0.3-0.3-0.4-0.5
		c0.1-0.8-0.2-1.5-0.4-2.2c0.2-0.1,0.4-0.3,0.7-0.4c0.5,0,1,0,1.4,0C147.4,219,147.7,218.9,148,218.9z"/>
	<path class="st6" d="M172,217.1c0,0.5,0,0.9,0,1.4c-0.3,0-0.6,0-0.9,0c0-0.7-0.6-1-1.1-1.3c0.4-0.1,0.7-0.2,1.1-0.3
		C171.4,217,171.7,217,172,217.1z"/>
	<path class="st10" d="M155.9,223.5c-0.5,0.1-1,0.2-1.5,0.3c0.1-1.1,0.9-0.7,1.5-0.7C155.9,223.2,155.9,223.3,155.9,223.5z"/>
	<path class="st10" d="M154.2,224c-0.2,0-0.4,0-0.6-0.1C153.9,223.5,154.1,223.7,154.2,224z"/>
	<path class="st10" d="M175.5,205.5c-1.3-1.9-0.1-2.9,1.3-3.7c1.6-0.8,3.3-1.4,4.6,0.6c0.4,0.7,0.7,1.5,1,2.2
		c-0.9-0.1-1.9,0-2.7-0.4C177.9,203.5,176.7,204.4,175.5,205.5z"/>
	<path class="st10" d="M174.5,216c-0.2-1.3-0.3-2.7-0.5-4c0.1-1.6-0.4-3.4,1.2-4.5c0.9,0.4,0.8,1.2,0.7,1.9
		c-0.2,2.2-0.2,4.4-0.9,6.6C174.8,216,174.7,216,174.5,216z"/>
	<path class="st4" d="M95.3,242.9c-1.4-4.2-2.9-8.4-2.5-13c0.3-3.2,0.1-6.5,0.6-9.7c0.4-2.5,0.8-2.9,3.2-1.9c4.2,1.8,8,4.3,11.6,7.1
		c0.8,0.7,1.5,1.6,2.8,1.5c0,1,0.1,2,0.1,3c0.1,2.3-0.2,4.7,1.6,6.6c-1.9,1.8-3.8,3.7-6.2,5c-1.1-0.1-1.9,0.5-2.8,0.9
		C101,243.3,98.2,244.6,95.3,242.9z"/>
	<path class="st10" d="M112.7,236.5c-1.8-1.9-1.5-4.3-1.6-6.6c0-1-0.1-2-0.1-3c0-0.5,0-1-0.1-1.6c1.2-1.3,0.6-2.6,0-3.9
		c1.1-0.6,0.4-1.3,0-2c1.3-1.7,0.9-3.6,0.9-5.6c-1.6,0.7-1.8,2.4-3.1,3c-0.7,0.1-1.3,0.1-1.7-0.6c2.3-1.2,3.6-3.3,5.3-5.1
		c1-1-0.1-1.9-0.6-2.7c-0.4-0.8-1.2-0.2-1.7,0.1c-2.3,1.5-4.4,3.2-5.7,5.7c-0.7-0.4-1-1-0.9-1.8c0.1-1.1,1.3-1.1,1.8-1.8
		c2-2.8,6.3-3.2,7.1-7.2c0,1,0,2,0.1,3c0.2,1.8,1,3.4,2.8,3.7c1.9,0.3,4,0.9,5.7-1.3c1.5-2,1-3.8,0.1-5.6c-1-2-3.1-2-5-1.9
		c-0.9,0.1-1.7,0.7-2.7,0.4c0.3-0.8,1.3-1.2,1-2.2c0.3-0.7,0.7-1.1,1.4-1.3c0.1,0.7,0.1,1.6,1.1,1.7c1.3,0.2,0.8-1.3,1.5-1.6
		c0.5,0.5,0.5,1.5,1.6,1.5c0.4,1.3,1.8,1.9,2.4,3c0,2.8,1,4.7,4,5.5c1.4,0.3,2.5,1.4,3.4,2.7c1,1.4,1.8,2.9,3.3,4
		c-0.4,1.2-1.4,1.3-2.4,1.4c0.6-0.8,0.2-1.5-0.2-2.3c-1.2-2.4-3-4-5.4-5.2c-0.8-0.4-1.6-1.2-2.4-0.2c-0.8,1-0.4,1.9,0.3,2.7
		c1.1,1.3,2.4,2.3,3.4,3.6c1.2,1.5,2.5,2,4.3,1.3c-1,1.3-2.5,1.7-4,1.9c-0.4-2.6-2.6-3.5-4.5-5.1c-0.2,2.8-0.2,5.1,0.4,7.3
		c0,0.8,0,1.5,0,2.3c0.2,1.1,0.4,2.3,0.5,3.4c0,0.5-0.1,1.1-0.1,1.6c-0.1,0.3-0.1,0.5-0.2,0.8c0,0.6,0,1.1,0,1.7c0,0.4,0,0.9,0,1.3
		c-0.2,0.8-0.1,1.6,0.1,2.4c-0.4,0.7-0.9,1.4-1.3,2.1C118.6,236.4,115.6,236.4,112.7,236.5z M120.9,223.2c-0.1,0-0.2,0-0.2,0
		c0-1.7,0-3.5,0-5.2c0-5-0.1-4.8-4.8-5.8c-2.3-0.5-2.8,0.4-2.9,2.3c-0.2,5.1-0.4,10.3-0.6,15.4c0,0.5,0,1,0.1,1.5
		c0.5,2.8,1.6,3.6,5,3.5c2.3-0.1,3.4-1.2,3.5-3.9C121,228.4,120.9,225.8,120.9,223.2z"/>
	<path class="st11" d="M121.5,236.4c0.4-0.7,0.9-1.4,1.3-2.1c1.9,5.7,6.3,8,11.8,9.3c4.7,1.1,8.5,0.3,11.4-3.6
		c0.8,1.3,0.5,2.6,0.3,3.9c-1.9,0.5-3.2,2-4.9,2.8c-2.4,1.1-4.8,1.4-7.2,0.1c-4.5-2.4-8.2-5.9-12.2-9
		C121.6,237.4,121.5,236.9,121.5,236.4z"/>
	<path class="st11" d="M95.3,242.9c3,1.7,5.7,0.4,8.5-0.6c0.9-0.3,1.7-1,2.8-0.9c-1.8,2.3-4.6,3.2-7,4.6c-1.4,0.8-2.3-0.8-3.5-0.8
		C95.7,244.5,94.9,243.9,95.3,242.9z"/>
	<path class="st7" d="M122.6,241.9c3.7,2.4,7.3,4.9,11,7.3c-0.2,0.3-0.4,0.5-0.6,0.8c-3.9-2.1-7.7-4.3-10.6-7.9
		C122.5,242,122.5,241.9,122.6,241.9z"/>
	<path class="st7" d="M142.4,249.6c-2.1,1.1-4.1,2.2-6.5,1.8c-0.6-0.1-1.5,0.2-1.7-0.7c-0.2-1,0.8-0.8,1.4-1
		C137.8,249.1,140.1,249.6,142.4,249.6z"/>
	<path class="st9" d="M113.1,244c-1.4,1.8-2.8,3.6-5,4.6l-0.1-0.1c-0.1-1,0.5-1.6,1.2-2.2c0.7-0.5,1.4-1.2,1.3-2.2c0,0,0,0,0,0
		C111.4,244,112.2,244,113.1,244z"/>
	<path class="st7" d="M119.6,239.4c1,0.3,1.8,0.9,2,2c-0.1,0.1-0.1,0.1-0.2,0.2c-1.1-0.3-1.7-0.9-2-2
		C119.5,239.5,119.5,239.4,119.6,239.4z"/>
	<path class="st7" d="M121.6,241.3c0.3,0.2,0.6,0.4,1,0.5c-0.1,0.1-0.1,0.2-0.2,0.2c-0.3-0.2-0.6-0.4-1-0.6
		C121.5,241.5,121.6,241.4,121.6,241.3z"/>
	<path class="st6" d="M79.1,228.5c-0.5-0.5-1-1-1.5-1.6c-0.2,0-0.3,0-0.5,0c0-1,0.1-1.9,0.1-2.9c1.2-0.5,0.8-1.5,0.8-2.3
		c0.1-3.9,0.1-7.9,0.1-11.8c1.6,2.5,3.6,4.5,6.9,4c0.1,0.6,0.1,1.2-0.4,1.6c-1.1-1.2-2.5-1.4-4-1.5c-1.6-0.2-0.5,0.8-0.5,1.3
		c0,0.4-0.1,0.8-0.1,1.1c0,0.5,0,1.1,0,1.6c-0.7,0.6-0.6,1.3-0.1,2c1.5,1.1,2.9,1.4,4.4,0.1c0.2-0.1,0.4-0.1,0.6-0.2
		c0.9,2.7-1.3,5-0.9,7.6C82.5,228.5,80.8,228.4,79.1,228.5z"/>
	<path class="st10" d="M78.1,209.9c0,3.9,0,7.9-0.1,11.8c0,0.8,0.3,1.9-0.8,2.3c-0.1-5.4-0.6-10.7-2.1-15.9
		c-0.2-0.6-0.4-1.3-0.6-1.9c-0.9-2.2-1.8-2.4-3.6-0.6c-0.5,0.5-0.7,1.1-1.4,1.3c-0.5-0.2-1-0.4-1.4-0.5c0.4-0.8,0.6-1.6,0.5-2.4
		c0.3-0.1,0.7-0.2,0.9-0.3c3.2-2.3,5.1-1.7,6.6,1.9c0.2,0.5,0.6,1,0.9,1.4l0,0C77,208.1,77,209.2,78.1,209.9L78.1,209.9z"/>
	<path class="st10" d="M77,227c0.2,0,0.3,0,0.5,0c0,0.5-0.2,1-0.8,1.1C76.6,227.6,76.6,227.2,77,227z"/>
	<path class="st14" d="M112.4,203.7c-0.8,4-5.1,4.4-7.1,7.2c-0.5,0.7-1.7,0.7-1.8,1.8c-1.6,0.8-3.1,0.1-4.6-0.3
		c-5.3-1.4-5.5-1.3-5.4,4.2c-0.8,0.4-1.3,1.9-2.4,1.4c-1.2-0.5-0.7-1.9-0.8-2.9c-0.3-2.9,1-5.4,2-7.9c0.7-4.1,3.1-6.7,7.1-7.8
		c0.8,1.2,1.9,0.6,3,0.7c3.5,0.4,6.9,1.4,10.1,2.9C112.5,203.1,112.5,203.4,112.4,203.7z"/>
	<path class="st8" d="M76.4,191.5c2.5-0.9,3.3-0.6,3.9,1.7c1.1,4,1.8,8,2,12.6c3-3,5-6.3,7.6-9.3c1.7,2.5,3,5,1.6,8
		c-1.7-0.9-3.4-0.9-4.9,0.2c-1.6,1.2-0.7,3.3-1.7,4.8c-2.7-1.7-4.6-4.3-7.3-5.8c-1.2-0.8-1.6-2-1.5-3.4
		C76.2,197.3,76.3,194.4,76.4,191.5z"/>
	<path class="st8" d="M110.9,221.5c0.6,1.3,1.2,2.6,0,3.9c-3.1-2.9-6.9-4.8-10.3-7.2c-2-1.3-4.3-1.6-6.5-2.3
		c0.1-2.2,1.1-2.7,3.2-2.2C102.7,214.9,107.1,217.8,110.9,221.5z"/>
	<path class="st3" d="M110.9,221.5c-3.9-3.7-8.3-6.6-13.6-7.8c-2.1-0.5-3.1,0-3.2,2.2c-0.2,0.2-0.4,0.4-0.6,0.5
		c-0.1-5.5,0-5.6,5.4-4.2c1.5,0.4,3,1.1,4.6,0.3c-0.1,0.8,0.2,1.4,0.9,1.8c0.9,0.6,1.8,1.3,2.6,1.9c0.4,0.6,1,0.7,1.7,0.6
		c0.3,1.3,1.4,1.8,2.3,2.6C111.3,220.2,112,220.9,110.9,221.5z"/>
	<path class="st4" d="M85,213.9c-3.3,0.4-5.3-1.5-6.9-4c0,0,0,0.1,0,0.1c0.3-1.2-0.3-2.1-1-3c0,0,0,0,0,0c0-0.8,0-1.6,0-2.4
		c2.6,1.5,4.7,3.8,7.2,5.5c0.9,0.6,0.8,1.5,0.9,2.4C85.1,213,85,213.4,85,213.9z"/>
	<path class="st6" d="M77.1,204.6c0,0.8,0,1.6,0,2.4c-0.3-0.5-0.7-0.9-0.9-1.4c-1.5-3.6-3.4-4.2-6.6-1.9c-0.3,0.2-0.6,0.2-0.9,0.3
		c0,0-0.2-0.2-0.2-0.2c0.8-1.7,1.9-3.1,3.9-2.8c2,0.3,2.6-0.8,2.6-2.4c0.1-2.4,0.1-4.8,0.1-7.2c0.5,0,0.9,0,1.4,0
		c-0.1,2.9-0.2,5.8-0.4,8.7c-0.1,1.4,0.3,2.6,1.5,3.4C77.4,203.9,77.2,204.2,77.1,204.6z"/>
	<path class="st9" d="M100.6,252.7c-0.7,0-1.4-0.1-2-0.1c-0.2-0.7-0.3-1.4-0.5-2c0.3-0.2,0.6-0.3,1-0.5c0.3,0,0.6,0,1,0
		c0.2,0.2,0.4,0.2,0.5,0c1.1-0.1,1.8-1.2,3-1c0.8,0.6,0.9,0,1-0.5c0.3-0.2,0.6-0.3,1-0.5c0.7,0.8,1.6,0.4,2.5,0.5
		c0,0,0.1,0.1,0.1,0.1c-0.9,0.6-1.7,1.3-2.6,1.9c-0.7-0.1-1.1,0.2-1,0.9C103.2,251.8,101.9,252.3,100.6,252.7z"/>
	<path class="st11" d="M90.2,207.9c-0.1,1.4-0.2,2.8-0.9,4.1c-0.2,0.3-0.3,0.9-0.8,0.8c-0.3-0.1-0.6-0.5-0.8-0.9
		c-0.7-1.4-0.5-2.9-0.4-4.4c0.1-0.9,0.4-1.9,1.7-1.7C90,206,90.3,206.9,90.2,207.9z"/>
	<path class="st6" d="M108,248.4c-0.8-0.1-1.8,0.3-2.5-0.5c1.2-1.9,3.3-2.7,5-4c0.1,1.1-0.6,1.7-1.3,2.2
		C108.5,246.8,107.9,247.4,108,248.4z"/>
	<path class="st6" d="M104.5,248.5c-0.1,0.6-0.2,1.2-1,0.5C103.7,248.6,104.1,248.5,104.5,248.5z"/>
	<path class="st6" d="M99,250c-0.3,0.2-0.6,0.3-1,0.5C98.1,249.8,98.2,249.3,99,250z"/>
	<path class="st6" d="M100.5,250c-0.2,0.2-0.4,0.2-0.5,0C100.2,250,100.4,250,100.5,250z"/>
	<path class="st6" d="M172,218.5c1.4,0.9,1.3,2.7,2,4c-0.2,3.2,0.3,6.4-0.7,9.5c-1.4,0.4-1.2-1.5-2.3-1.5c1-2.1,1-4.3,0.8-6.5
		C172.8,222.1,171.7,220.3,172,218.5z"/>
	<path class="st13" d="M118.1,22.1c0,0.5,0,0.9,0,1.4c-0.3,0.7-1.1,0.8-1.7,0.9c-5.3,0.4-8.6,4.6-8.4,10.2c-1.6,0.3-3.1,0.2-4.7-0.3
		c-2.1-0.7-4.2-1.4-6.3-2.1c-4.3-3.5-7-8.2-8.5-13.2c-1.7-5.5-1.8-11.3,2.7-16.1c0.7-0.8,1.5-0.9,2.4-0.6c1.8,0.7,3.7,1.5,5.5,2.2
		c0,0,0.1,0.2,0.1,0.2s0.2-0.1,0.2-0.1c0.4,0.2,0.7,0.3,1.1,0.5c0.6,0.8,1.5,1.2,2.4,1.6C109.2,10.6,114.4,15.6,118.1,22.1z"/>
	<path class="st7" d="M68.1,212.2c-0.2,0.6,0.4,1.8-0.5,1.9c-1.2,0.2-0.9-1.1-1.3-1.8c-0.2-0.3-0.2-0.6-0.2-1c0-0.9-1.2-2.3,0-2.6
		c1.3-0.3,2,1.1,2,2.6C68.1,211.7,68.1,211.9,68.1,212.2z"/>
	<path class="st12" d="M66.5,207c0.2,0,0.3,0,0.5,0c-0.1,0.3,0.3,0.8-0.2,0.8C66.5,207.8,66,207.4,66.5,207z"/>
	<path class="st8" d="M80.1,215.3c-0.1-0.5-1.2-1.5,0.5-1.3c1.5,0.1,2.9,0.3,4,1.5c0,0.3,0,0.6-0.1,0.9
		C83,216,81.6,215.6,80.1,215.3z"/>
	<path class="st7" d="M79.9,220c-0.5-0.7-0.6-1.4,0.1-2c1.5,0.4,3,0.6,4.5,0.5c0.1,0.5,0.3,1,0.4,1.4c-0.2,0-0.4,0.1-0.6,0.2
		C82.8,219.6,81.4,218.9,79.9,220z"/>
	<path class="st11" d="M84.5,218.5c-1.5,0.1-3-0.1-4.5-0.5c0-0.5,0-1.1,0-1.6c1.5,0.4,3,0.8,4.5,1.1
		C84.5,217.8,84.5,218.1,84.5,218.5z"/>
	<path class="st7" d="M84.5,217.5c-1.5-0.4-3-0.8-4.5-1.1c0-0.4,0.1-0.8,0.1-1.1c1.5,0.4,2.9,0.7,4.4,1.1
		C84.5,216.7,84.5,217.1,84.5,217.5z"/>
	<path class="st14" d="M168,143.3c0.1,8.9,0,17.8-0.3,26.7c-0.1,2.9-0.3,5.8-0.2,8.7c0.1,2-0.8,3-2.4,3.8
		c-6.3,3.3-13.1,5.3-19.9,6.9c-15.1,3.6-30.4,3.7-45.8,2.5c-2.6-0.2-5.1-1.1-7.6-1.7c0-0.2,0-0.3,0-0.3c0.9-0.8,2.8-1.3,1.8-2.9
		c-1-1.5-2.6-1.4-4.2-0.4c-3.1,2-6.4,1.6-9.5,0.2c-4.1-1.8-7.8-4.3-10.8-7.4c-4-4.1-5.7-9.6-4.8-15.2c1.1-6.6,1.1-13.2,0.8-19.9
		c3.4,2,6.8,3.5,10.5,0.5c1.3,1.1,2.4,2.4,3.5,3.8c0.4,0.5,0.8,1.3,1.5,1c0.8-0.2,0.5-1.1,0.5-1.7c0-2.7,0.2-5.4,1.6-7.9
		c7-2.3,13-0.5,18,4.8c2.6,2.7,5,5.6,7.4,8.4c3.2,3.6,3.2,3.6,6.4,0.2c2.5-0.3,4-2.1,5.5-3.8c2.2-2.5,4.3-5.1,6.5-7.6
		c0.3,1.2,0.6,2.4,2,2.9c3.5,1.3,8,0,9.4-2.9c0.3-0.5,0.7-0.8,1.3-1.1c6.8-4,15.4-3.2,21.4,1.9c2.5,2.2,4,2.2,6.6,0.5
		C167.3,143.1,167.7,143.3,168,143.3z M143.2,173c3.2,0,6.2,0.3,9-0.6c1.9-0.6,3.6-1.4,3.8-4c0.2-2.5-0.8-3.8-3.2-4.4
		c-4.3-1.2-8.6-1.4-13-0.7c-2,0.3-3.8,1-5.4,2.2c-1.3,0.9-2,2.1-1.6,3.9c0.3,1.6,1,2.3,2.7,2.9C138.2,173.2,140.9,172.7,143.2,173z
		 M79.8,175.6c2.1-0.7,4.4-1.1,6.3-2.2c2.8-1.5,2.4-4.3-0.3-6c-3.9-2.5-8.1-2.9-12.6-2.3c-1.7,0.2-4.8,3.6-5,5.4
		c-0.2,1.8,1.4,3.4,4.2,4.1C74.8,175.2,77.3,174.9,79.8,175.6z M130.1,175.3c-1.2,2.7-2,5.6-4.7,7.3c-4.9,3.1-10,4.7-15.8,3.4
		c-5.1-1.2-9.5-3.2-10.7-9c-0.1-0.5-0.3-1.1-1-0.8c-0.6,0.2-0.5,0.8-0.3,1.3c0.9,3,2.3,5.8,5.2,7.3c7.7,3.8,15.4,4,22.8-0.6
		C128.9,182.3,130.7,179.3,130.1,175.3z"/>
	<path class="st15" d="M168,143.3c-0.3,0-0.7-0.1-0.9,0c-2.7,1.8-4.1,1.7-6.6-0.5c-6-5.1-14.6-5.9-21.4-1.9c-0.5,0.3-1,0.6-1.3,1.1
		c-1.4,3-5.9,4.2-9.4,2.9c-1.4-0.5-1.7-1.7-2-2.9c0-1.1-0.6-2-1.3-3.3c-3.6,5-7.1,9.9-10.7,14.7c-3.3,3.4-3.2,3.4-6.4-0.2
		c-2.5-2.8-4.9-5.6-7.4-8.4c-5-5.3-11-7.1-18-4.8c-3.5-0.1-5.4,2.2-7.1,4.8c-3.7,3-7.1,1.5-10.5-0.5c0.2-1.3,0-2.5-0.9-3.5
		c0.4,0.1,0.8,0.2,0.9-0.4c0.4-4.4,3.4-6.7,7-8.5c0,0.9,1.2,1.3,1,2.3c-1.2,0-2,0.7-2.9,1.7c1.3,0.2,2.3,0.4,3.4,0.5
		c0.9,0.2,1.1,2.8,2.6,0.7c1.7-3.3,2.4-7,3.6-10.5c1.4-4,3-8.1,4.5-12.1c1.1,0,0.6-1.9,1.8-1.6c0.8,0.2,1.3,1,1.1,1.9
		c-0.5,0.1-0.8,0.3-0.9,0.7c-1.3,4-2.5,8.1-4.3,11.9c-0.6,1.3,0.4,1.2,1.1,1.3c2.1,0.3,4.1,0.3,6.2,0.6c2,0.3,2.3-0.4,1.7-2.2
		c-1.4-3.8-2.6-7.7-3.3-11.7c0.7,0.2,1.4,0.3,2.1,0.5c1.5,5.9,3.8,11.5,6.4,17c3.8,8.1,9.6,14.7,15,21.5c9.9-10.2,15.4-22.9,21.9-35
		c1.2,0.9,1.2,2.2,0.9,3.5c-0.6-0.6-0.7-0.1-0.9,0.4c-1,2.4-2.1,4.9-3.1,7.3c-0.5,1.1-1.7,1.9-1.6,3.2c6.3-1,6.2-5.7,6-10.3
		c0.6-0.2,1.2-0.3,1.8-0.5c0.4,2.1-0.8,4.2-0.2,6.4c1.5-0.2,2.3-1.2,3-2.3c2.7-4,4.7-8.3,6.7-12.6c0.7,0,1.2,0.4,1.6,1
		c-1.3,3.6-2.6,7.3-5.1,10.3c-0.4,0.5-1.1,1-0.8,1.7c0.4,0.9,1.3,0.5,2,0.5c1.5,0,3-0.1,4.4-0.2c1.5,0.2,3,0.3,4.5,0.5
		c2.6,0.5,5.1,1.4,7.5,2.4c-0.1,0.4-0.1,0.8-0.2,1.2c-4.4-0.9-8.7-2.4-13.3-2c-5.9-1.3-9.8,3-14.5,4.9c1.4,0.6,3.4,0.5,3.8,1.8
		c1.4,4.3,3.7,2.6,6.1,1.3c0.4-0.2,0.8-0.2,1.2-0.3c7.1-1.3,14.1-2,19.6,4.2c0.9,0.9,2.4,1.7,3.5,0.5c1.1-1.2,0.7-2.6-0.2-3.9
		c-1.1-1.5-2.3-3-3.4-4.6c0.8-0.8,1.7,0.3,2.6,0c1.1,1.2,2.2,2.4,3,3.9C167.7,139.7,167.8,141.5,168,143.3z M90,130.6
		c-2.8-0.6-5.6-0.2-8.4-0.3c-0.7,0-1.2,0.3-1.4,0.8c-0.9,2.4-1.9,4.8-2.7,7.2c-0.4,1,0,1.4,1.1,1.1c2.5-0.6,4.9-1.2,7.4-1.9
		c0.7,0,1.3-0.1,2-0.1c0.5,0,1,0,1.5,0c2.4,0.1,4.6,0.8,7.1,1.5c-1-2.6-2.7-4.5-3.9-6.7C92.2,131.1,91.3,130.6,90,130.6z"/>
	<path class="st14" d="M133,215.2c-1.4-1-2.3-2.6-3.3-4c-0.9-1.3-2-2.4-3.4-2.7c-3-0.7-3.9-2.7-4-5.5c0.6-0.8,1.5-1,2.4-1.1
		c3.7-0.1,7.4-0.8,11-1.7c2.3-0.6,4.7-0.6,6.9-0.1c3.6,0.8,7.2,1.1,10.8,0.2c3.4,1.2,5.1,4.1,6.9,6.9c0.4,0.6-0.1,0.9-0.5,1.2
		c-4.8,2.5-8.2,6.7-11.9,10.4c-0.3,0-0.6,0.1-0.9,0.1c-0.1-4-0.7-4.6-4.7-4.6C139.3,214.4,136.1,214.3,133,215.2z"/>
	<path class="st12" d="M93.8,32c-8.8,1.8-16,5.9-23.1,10.4c-2,1.3-2.7,0.9-2.6-1.5c0-4.7,0.7-9.4,2.9-13.5c3.7-6.9,6.9-8.5,14.4-8
		c1,0.1,1.3,0.6,1.6,1.3C88.6,24.8,90.5,28.6,93.8,32z"/>
	<path class="st5" d="M173.6,191.1c-0.7,3-3.5,4.6-4.9,7c-0.1,0.2-0.6,0.3-0.9,0.2c-0.6-0.2-0.4-0.8-0.4-1.3c0.3-3,0.5-6,1-8.9
		c1.3-7.2,1.3-14.5,1.5-21.8c0.2-6.8,0-13.6,0-20.4c1,1,2,2,3.1,2.9c2.7,2.2,3.7,4.9,3.5,8.3c-0.2,2.2-0.1,4.4,0.6,6.4
		c2.4,7.4,1.3,14.5-1.6,21.6C174.6,187,173.8,189,173.6,191.1z"/>
	<path class="st5" d="M72.9,21.4c-2.1,1.8-3.3,4.1-4.4,6.5c-1.2,2.6-2.5,5.2-3.3,8c-0.4,1.4-1.6,0.8-2.4,1.4
		c0.6,0.3,1.1,0.5,1.6,0.7c0,2.6,0.8,5.1,1.3,7.6c-0.6,0.6-1.2,1.1-1.8,1.7c-2.5,2.3-3,2.2-4.3-1.1C58,42.2,58.5,38,59.3,34
		c1.3-6.9,4.3-13.1,8.5-18.7c1.1-1.5,2.3-3.3,4.7-3.1c0.6,1.7,2,2.7,3,4.1c0.6,0.9,1.4,1.7,0.6,2.8c-0.2,0.1-0.4,0.3-0.6,0.4
		C74.3,19.7,73.6,20.6,72.9,21.4z"/>
	<path class="st10" d="M167.3,185.1c-0.2,4.6-2.6,8.4-4.9,12.1c-0.6,1.1-1.3,2.2-2,3.1c-1.4,1.9-1.9,1.9-3-0.3
		c-1.1-2.1-0.9-4.7-2.2-6.8c-0.3-0.5-0.2-1.4-1.1-1.5c-0.9,0-0.9,0.8-1.2,1.4c-1.4,3.5-1.4,3.5-5.1,2.6c-1.9-0.5-3.9-0.8-5.8-1.2
		c-0.6-0.1-1.6-0.2-1.6-0.9c0-0.9,1-0.9,1.7-1.1c6-1.2,12-2.5,17.5-5.5c2-1.1,3.9-2.1,5.9-3.2C167.1,182.7,167.4,183.7,167.3,185.1z
		"/>
	<path class="st10" d="M56,160.9c-0.9-1.9-1-4-1.5-6c-0.7-3.4,2-5.4,3.3-8c0.9-1.8,2.3-3.4,3-5.4c0.2-0.6,0.2-1.5,1.2-1.3
		c0.7,0.1,0.7,0.9,0.8,1.4c0.8,4.6,2,9.2,0.8,14c-1,3.8-0.4,7.8-0.6,11.6c-0.1,1.3-0.1,2.6-0.2,4c-1.1-0.6-1.3-1.9-1.9-2.8
		C59.2,165.9,58.5,162.8,56,160.9z"/>
	<path class="st10" d="M173.6,191.1c0.2-2.1,1-4,1.8-5.9c2.9-7,4-14.1,1.6-21.6c-0.7-2.1-0.7-4.3-0.6-6.4c0.3-3.4-0.7-6.2-3.5-8.3
		c-1.1-0.9-2.1-1.9-3.1-2.9c0-0.6,0-1.1,0-1.7c3.8,2.1,6.6,5.3,10,7.8c0,4.2,0.1,8.5,0.1,12.7c-0.1,3.6,0.2,7.1,2.5,10.2
		c-0.7,3.8-2.9,6.8-4.8,10C176.4,187,175.8,189.6,173.6,191.1z"/>
	<path class="st5" d="M56,160.9c2.5,1.9,3.2,5,4.9,7.5c0.7,0.9,0.8,2.2,1.9,2.8c0.6,4.2,2.5,7.7,5.6,10.5c2.2,2,1.4,4.5,1.4,6.7
		c0,1-1.4,0.9-2.3,1.1c-1.2,0.2-1.9-0.3-2.3-1.4c-1.4-3.7-3-7.4-4.3-11.1C59,171.7,56.8,166.5,56,160.9z"/>
	<path class="st4" d="M75,191.5c0,2.4,0,4.8-0.1,7.2c-0.1,1.5-0.6,2.7-2.6,2.4c-2-0.3-3.2,1.1-3.9,2.8c-0.5,0.3-0.6,1.1-1.3,1.1
		c-0.8-1.1-1.5-2.2-2.4-3.1c-2.7-2.5-3.7-5.6-3-9.2c0,0,0,0,0,0c0.8-0.2,1.6-0.4,2.5-0.6c0.6,0,1.2,0,1.8,0c0.2,0.2,0.3,0.4,0.5,0.5
		c0,0,0,0,0,0c0.6,2,1.5,3.8,3.4,4.9c0.1,0.8,0.2,1.8,1.3,1.7c1.3-0.1,0.8-1.2,0.8-1.9c0-0.9-0.1-1.8-0.3-2.7
		c-0.5-2.1,0-3.3,2.3-3.4C74.3,191.3,74.7,191.4,75,191.5z"/>
	<path class="st3" d="M76,137.1c-1.5,2.1-1.7-0.6-2.6-0.7c-0.1-0.7-0.3-1.5-0.4-2.2c0.2-1-1-1.4-1-2.3c-0.4-5-1.9-9.8-2.7-15.4
		c-0.5,1-0.7,1.2-0.7,1.5c-1.2,4.7-2.4,9.3-3.5,14c-0.3,1.1-0.5,2.3-1.4,3.1c-0.4-0.2-0.7-0.4-1.1-0.5c2.1-7.8,4.2-15.6,6.4-23.3
		c0.2-0.6,0.1-1.5,1-1.4c0.8,0.1,0.5,0.9,0.6,1.5c1.4,7.8,2.3,15.8,4.4,23.5C75.1,135.6,75.4,136.4,76,137.1z"/>
	<path class="st5" d="M72.9,11.5c3.5-3.3,7.8-2.5,12-2.5c0.6,0,1,0.5,1.2,1.1c0.1,0.4,0.3,0.8,0.3,1.2c0.2,7.1,1.3,5.8-6.4,6.3
		c-1.6,0.1-2.8-0.5-3.7-1.9C75.4,14.2,74.1,12.9,72.9,11.5z"/>
	<path class="st8" d="M172.5,207c-3,0-6-0.4-8.9,0.4c-0.6,0.2-1.1,0-1.6-0.4c-2.4-3.3-2.4-3.3,0.2-6.5c0.8-1,1.6-1.9,2.3-2.8
		c0.1,0.6,0,1.3,0.6,1.8c0.1,1.4-1,3.5,0.4,4.1c1.1,0.5,1.9-1.7,2.8-2.6c1.3-1.4,2.4-2.9,3.7-4.4C174.6,200,174.6,200.9,172.5,207z"
		/>
	<path class="st16" d="M153.6,200.4c-3.6,0.8-7.2,0.6-10.8-0.2c-2.3-0.5-4.6-0.5-6.9,0.1c-3.6,0.9-7.3,1.6-11,1.7
		c-1,0-1.8,0.3-2.4,1.1c-0.6-1.2-2-1.7-2.4-3c5.1,0.1,10.1-1,14.9-2.6c4.9-1.6,9.5-0.7,14.1,1C150.6,199,152.1,199.8,153.6,200.4z"
		/>
	<path class="st16" d="M63.6,135c0.9-0.8,1.2-2,1.4-3.1c1.2-4.7,2.4-9.3,3.5-14c0.1-0.3,0.3-0.6,0.7-1.5c0.8,5.6,2.2,10.4,2.7,15.4
		c-3.6,1.8-6.5,4.1-7,8.5c-0.1,0.6-0.5,0.5-0.9,0.4C63.4,138.9,62.3,137.1,63.6,135z"/>
	<path class="st8" d="M179.7,199.2c-1.2,1.1-2.8,0.5-4.1,1.1c-0.2,0.1-0.6-0.2-0.8-0.4c-1.1-1.3-0.9-5.8,0.4-7.1
		c1.9-1.9,2.9-4.4,4.3-6.6c0.5-0.9,1-1.7,2.1-1.8c1.2,0.5,1.5,1.3,1.1,2.6C181.3,191,180.4,195.1,179.7,199.2z"/>
	<path class="st8" d="M56.8,174c2,4.9,5.1,8.9,4,14.4c-1.3-0.2-2.6-0.4-3.9-0.7c-2.5-0.6-3.6-2.1-3.5-4.6
		C53.6,179.8,54.9,177,56.8,174z"/>
	<path class="st10" d="M39.8,123.6c-0.3-4,0.6-7.9,1.2-11.8c0.8-4.7,1.5-9.5,3.1-14.1c0.3-0.8,0.3-1.7,1.1-2.2
		c0.5,2.9-0.1,5.9-0.2,8.8c-0.1,2-0.4,4.1-0.3,6.2C44.8,115.5,42.3,119.6,39.8,123.6z"/>
	<path class="st10" d="M57.5,121c0.1-2,1-3.6,3.1-4.9C59.2,127.1,54,137,55,148c-0.6,0.9-0.7,0.9-1.1-0.2c-1.3-4.3-0.8-8.5,0.3-12.7
		c1-4,1.4-8.2,3.3-11.9C57.9,122.4,57.9,121.7,57.5,121z"/>
	<path class="st10" d="M179.7,199.2c0.7-4.1,1.6-8.2,2.8-12.3c0.4-1.3,0.2-2.1-1.1-2.6c0.1-0.4,0.1-0.7,0.2-1.1
		c1.1-0.1,2.6,0.3,2.9-1.2c0.2-1.2,1.4-2.7-0.5-3.6c0-0.2,0-0.3,0-0.4c2-1.2,3.8-0.2,5.6,0.5c-0.1,2.1-2.1,3.1-3,4.7
		c-2.7,4.7-3.8,9.8-4.5,15C181.8,200.4,180.9,200,179.7,199.2z"/>
	<path class="st10" d="M105.8,194.8c-4.4,1.8-8.4,2.5-11.7,4.8c-0.7,0.5-1,0-1.2-0.6c-0.6-2-2.2-4.4-1.4-6.1
		c0.5-1.1,3.5,0.1,5.3,0.5C99.6,194.1,102.5,193.7,105.8,194.8z"/>
	<path class="st16" d="M112.5,202.9c-3.2-1.5-6.5-2.5-10.1-2.9c-1-0.1-2.2,0.5-3-0.7c1.7-0.7,3.4-1.3,5.1-2c1.1-0.5,2-0.4,3.1,0.1
		c2.1,1.1,4.5,1.6,6.8,2.4c0.3,1-0.7,1.5-1,2.2c0,0,0,0,0,0c-0.5,0.2-0.6,0.6-0.8,1C112.7,202.9,112.6,202.9,112.5,202.9z"/>
	<path class="st6" d="M182.5,175c-2.3-3-2.5-6.5-2.5-10.2c0.1-4.2,0-8.5-0.1-12.7c1.1-0.3-0.3-2.6,1.8-2.1c1.6,0.4,1.7,1.5,1.6,2.8
		c-1.1-0.8-1.6-0.9-2.1,0.7c-1.6,4.5,0.5,8.8,0.4,13.3c0,3.2,1.1,6,3,8.5C183.9,175.7,183.1,175.8,182.5,175z"/>
	<path class="st10" d="M83.1,190.9c1.5,0,2.9,0.2,4.4,0.6c2.2,0.5,2.5,1.8,1.4,3.4c-1.2,1.9-2.3,3.9-4.4,5.1
		C83.4,197.1,83.7,193.9,83.1,190.9z"/>
	<path class="st7" d="M186.9,153.1c-0.2,0.7-0.4,1.5-0.7,2.3c-1-0.4-0.8-1.3-1.3-1.8c-0.4-3.3-1.9-6.1-3.7-8.8
		c-0.7-1-1.7-1.9-1.7-3.2c2.3,0.5,2.7,2.7,3.9,4.2c0.6,0.8,0.9,2,2.1,2.4C186.6,149.6,186.1,151.5,186.9,153.1z"/>
	<path class="st5" d="M83.1,190.9c0.6,3,0.3,6.2,1.4,9.1c0,0.9-0.3,1.6-1.2,2.5c-0.1-3.9-1.4-7.2-2-10.8
		C81.1,189.9,82.3,190.7,83.1,190.9z"/>
	<path class="st10" d="M168.8,131.1c-1.8-1.7-3.1-3.7-3.9-6c0.2-0.2,0.4-0.3,0.5-0.5c2,2.1,4,4.3,5.9,6.4
		C170.5,131.2,169.7,130.1,168.8,131.1z"/>
	<path class="st7" d="M97,32.1c2.1,0.7,4.2,1.4,6.3,2.1c1.5,0.5,3.1,0.6,4.7,0.3c0,0.3,0,0.6,0.1,0.9c-1.2,0-2.3,0-3.5,0
		c-2.7-0.3-5.2-1.3-7.5-2.7C97,32.6,97,32.4,97,32.1z"/>
	<path class="st6" d="M74,191.3c-2.3,0-2.9,1.3-2.3,3.4c0.2,0.9,0.3,1.8,0.3,2.7c0,0.7,0.4,1.8-0.8,1.9c-1.1,0.1-1.2-0.9-1.3-1.7
		c2-0.5,1-1.6,0.6-2.7c-0.2-0.7-0.3-1.5-0.5-2.2C70.6,190.2,72.3,190.6,74,191.3z"/>
	<path class="st10" d="M72.9,11.5c1.2,1.4,2.5,2.7,3.5,4.2c0.9,1.4,2.1,2,3.7,1.9c-1,1.5-2.6,1.3-4,1.4c0.8-1.2,0-1.9-0.6-2.8
		c-0.9-1.4-2.4-2.5-3-4.1C72.7,11.9,72.8,11.7,72.9,11.5z"/>
	<path class="st16" d="M184,178.5c1.9,0.9,0.7,2.4,0.5,3.6c-0.3,1.5-1.8,1.1-2.9,1.2C181.5,181.2,183.3,180.1,184,178.5z"/>
	<path class="st10" d="M65.8,45.6c-0.6-2.5-1.3-5-1.3-7.6c0.9,0,1.4,0.4,1.5,1.3c0.3,1.6,0.5,3.2,0.8,4.9
		C67,45.1,66.5,45.4,65.8,45.6z"/>
	<path class="st7" d="M70.4,194.9c0.4,1,1.3,2.2-0.6,2.7c-1.9-1.1-2.8-2.9-3.4-4.9c0.4,0,0.8-0.1,1.1-0.1
		C68.4,193.3,68.3,195.5,70.4,194.9z"/>
	<path class="st16" d="M73.7,188c-1.8,0.2-2-0.7-2.2-1.7c-0.1-0.7,0.3-1,0.8-0.8c0.9,0.3,2.1,0,2.2,1.4
		C74.6,187.9,73.9,188,73.7,188z"/>
	<path class="st5" d="M127.3,194.6c-2.3,0.1-4.5,1.1-6.8,0.1C122.8,194.7,125,193.6,127.3,194.6z"/>
	<path class="st5" d="M70.4,194.9c-2.1,0.6-2-1.5-2.9-2.4c0.9-0.9,1.7-0.5,2.4,0.1C70.1,193.4,70.3,194.1,70.4,194.9z"/>
	<path class="st10" d="M62.2,185.7c1.5,0.8,1.7,1.9,1,3.2c-0.2,0.4-0.7,0.6-1,0.2C60.9,188,62,186.9,62.2,185.7z"/>
	<path class="st5" d="M165.1,199.5c-0.6-0.4-0.5-1.1-0.6-1.8c-0.1-1.2,0.3-2.2,1.4-3.3C166.2,196.4,165.7,198,165.1,199.5z"/>
	<path class="st17" d="M118.5,198.5c-0.8,0.3-0.2,1.8-1.5,1.6c-1-0.1-1-1-1.1-1.7C116.8,196.9,117.6,197.8,118.5,198.5z"/>
	<path class="st10" d="M72.9,21.4c0.7-0.8,1.4-1.7,2.5-2C75.3,20.9,74.4,21.6,72.9,21.4z"/>
	<path class="st7" d="M64.1,192c-0.8,0.2-1.6,0.4-2.5,0.6C62.2,191.5,63.2,192,64.1,192z"/>
	<path class="st7" d="M66.4,192.6c-0.2-0.2-0.3-0.4-0.5-0.5C66.2,192.1,66.4,192.3,66.4,192.6z"/>
	<path class="st10" d="M99.4,4.6l-0.2,0.1c0,0-0.1-0.2-0.1-0.2C99.3,4.5,99.4,4.5,99.4,4.6z"/>
	<path class="st3" d="M108,35.5c0-0.3,0-0.6-0.1-0.9c-0.2-5.6,3.2-9.7,8.4-10.2c0.5,0,1.4-0.1,1.7-0.9c0.9,0.8,1.9,1.6,2.8,2.4
		c-0.3,0-0.6,0.1-0.9,0.1c-1.3,0-2.7,0-4,0c-2.6,0.1-5.7,2.7-6.3,5.2c-0.8,3.4,0.2,6.1,2.9,7.8c2.6,1.6,6.5,1.4,8.6-0.4
		c3.4-2.8,2.9-6.3,1.7-9.9c0.2-0.2,0.4-0.4,0.5-0.6c2.5,1.9,1.4,4.6,1.6,7c0.3,0.4,0.7,0.8,1,1.3c-1-0.3-1.1,0.6-1.6,1.1
		c-1.8,2-3.5,4.3-6.6,4.2c-2-0.1-1.9,0.6-1.4,2.2c2.4,7.3,6.8,13.4,12.1,18.9c1.8,1.9,4.1,3.1,6.7,1.9c2.8-1.2,2.9-3.7,2.8-6.3
		c-0.2-5.1-2.8-9.3-5.2-13.6c-0.1-0.3-0.2-0.7-0.3-1c-0.2,0-0.3,0.1-0.5,0.1c0.4-0.1,0.8-0.3,1.2-0.4c3.9,4.8,6.9,10,6.7,16.4
		c-0.2,4.6-2.4,6.8-7,6.7c-5.8-1.8-9.3-6.2-12.4-11.1c-1.4-2.2-2.6-4.6-3.7-7c-0.2-0.5-0.6-1.9-1.4-0.6c-1.8,3.3-3.4,6.7-5.1,10.1
		c-2.4,1.9-4.5,4.1-7.2,5.7c-2.1,1.2-4.2,2.3-6.7,2.5C93,66.3,90.8,64.5,91,61c0.4-6.3,2.9-11.8,6.8-16.7c0.2,0.3,0.5,0.5,0.7,0.8
		c-0.8,1.8-1.6,3.6-2.5,5.4c-1.4,2.8-2.7,5.7-3.4,8.8c-0.9,3.7,1.1,5.7,4.7,5c2.3-0.4,4.5-1.2,6.3-2.7c4.8-4,8.5-8.9,10.7-14.8
		c1-2.6,0.1-4.9-2.3-6.2c-2-1-3.1-2.6-4-4.6C108,35.9,108,35.7,108,35.5z"/>
	<path class="st3" d="M199.5,127c0,0.4,0,0.7,0,1.1c-1.8-0.4-1.6,0.8-1.5,2c0.7,5.8,1.9,11.5,3.3,17.1c0.1,0.4,0.2,0.8,0.4,1.8
		c-3.4-2.7-6.3-5.1-8.7-8c1.5,0.1,2.3-0.4,2.1-2c0.4,0.5,0.9,0.9,1.3,1.4c-2-12.8-3.2-25.6-5.3-38.4c0.6,0,1.3,0,1.9,0
		c0.4,1.3,0.8,2.6,1.3,3.9c0.2,4.4,1.5,8.5,2,12.9c0.2,1.5,0.6,3.1,0.7,4.6C197.1,125.1,197.9,126.3,199.5,127z M196.7,141
		c-0.1,0-0.1,0.1-0.1,0.1c0,0,0.1,0.1,0.1,0.2c0.1,0,0.1-0.1,0.1-0.1C196.8,141.1,196.7,141.1,196.7,141z"/>
	<path class="st9" d="M195,139c0.2,1.6-0.6,2.2-2.1,2c-2.1-1.4-2.6-4.1-5-6.1c0,3.4,0,6.2,0,9.1c0,1.7,0.1,3.3,0,5
		c-0.1,2.1,0.4,3.7,2.8,4c-1.2,0-2.5,0.1-3.7,0.1c-0.9-1.6-0.4-3.5-1.4-5c-0.5-7.4-1.2-14.8-2.4-22.2c-0.5-2.8-0.2-5.8-1.1-8.6
		c-0.1-0.4-0.2-0.9,0.3-1.1c0.9-0.2,1,0.7,1.3,1.2c1,7.1,4.8,12.9,8.9,18.6c0.6,0.8,1.1,1.9,2.3,2.1
		C194.9,138.4,194.9,138.7,195,139z"/>
	<path class="st8" d="M56.6,81.2c-0.1,3-2.3,5-5.5,4.8c-3.2-0.1-5.7-2.6-5.5-5.5c0.2-2.9,3-5.4,5.9-5.3C54.5,75.3,56.7,78,56.6,81.2
		z"/>
	<path class="st3" d="M147,115.5c-0.3-0.7-0.8-1-1.6-1c1-2.6,2-5.3,3.1-7.9c0.2-0.5,0.3-1.2,1-1.3c0.7-0.1,0.9,0.6,1.1,1.1
		c4.2,9.4,9,18.5,13.9,27.5c-0.9,0.3-1.7-0.8-2.6,0c-0.9-0.7-1.8-1.3-2.7-2c0.1-0.4,0.1-0.8,0.2-1.2c-0.1-0.4-0.1-0.8-0.3-1.2
		c-2.6-4.9-4.6-10.1-7-15.1c-1-2.1-1-4.5-2.5-6.6C148.8,110.6,147.9,113,147,115.5z"/>
	<path class="st9" d="M133.8,122.9c0.3-1.3,0.3-2.6-0.9-3.5c2.5-7,3.6-14.3,3.4-21.7c0-1.4-0.2-2.9,0.9-4.9
		c1.1,10.6,0.2,20.5-1.3,30.2c-0.6,0.2-1.2,0.3-1.8,0.5C134,123.3,133.9,123.1,133.8,122.9z"/>
	<path class="st10" d="M110.4,57.9c1.7-3.4,3.3-6.8,5.1-10.1c0.8-1.4,1.2,0.1,1.4,0.6c1.1,2.4,2.3,4.8,3.7,7
		c3.1,4.9,6.6,9.3,12.4,11.1c-1,0.9-2,0.5-3,0.1c-2.9-1.3-5.2-3.2-7.2-5.6c-1.8-2.2-3.6-4.3-5.3-6.5c-0.8-1-1.4-0.9-2.5-0.2
		C113.3,55.2,112.3,57.1,110.4,57.9z"/>
	<path class="st10" d="M87,114.9c0.1-0.9-0.4-1.8-1.1-1.9c-1.1-0.3-0.7,1.6-1.8,1.6c1.8-5.9,0.9-11.8,0.5-17.7
		c-0.1-2-0.4-3.9,0.7-5.8c0,8.6,2.8,16.6,4.2,24.9c-0.7-0.2-1.4-0.3-2.1-0.5C87.3,115.3,87.2,115.1,87,114.9z"/>
	<path class="st10" d="M194.8,138.1c-1.2-0.2-1.7-1.3-2.3-2.1c-4.1-5.7-7.9-11.4-8.9-18.6c1.9,1,2.8,2.9,3.7,4.6
		c2.7,5,5,10.1,7.4,15.2C194.8,137.4,194.8,137.8,194.8,138.1z"/>
	<path class="st8" d="M63.8,83.5c1.5,0.1,2,1.5,2.2,3c0.1,1.1-0.5,1.5-1.5,1.5c-1.8-0.1-2.6-1.2-2.9-2.8
		C61.3,83.9,62.3,83.6,63.8,83.5z"/>
	<path class="st10" d="M108,35.5c0,0.2,0,0.4,0,0.6c-2.2,0.9-3.7,2.5-5.2,4.3c-1.4,1.6-2.8,3.2-4.2,4.8c-0.2-0.3-0.5-0.5-0.7-0.8
		c1.8-2.1,3.6-4.2,5.5-6.2c0.6-0.7,1.4-1.4,1.2-2.5C105.7,35.5,106.9,35.5,108,35.5z"/>
	<path class="st9" d="M192.9,102c-0.6,0-1.3,0-1.9,0c-0.7-2.5-1.3-5.1-2-7.6C192.1,96.1,192.2,99.2,192.9,102z"/>
	<path class="st9" d="M127.9,37.5c1.2,0,1.5,1.6,2.7,1.7c0.4,1.5,1.8,2.4,2.5,3.8c-0.3,0.3-0.7,0.5-1,0.8c-1.6-2-3.6-3.7-4.6-6.2
		C127.7,37.5,127.8,37.5,127.9,37.5z"/>
	<path class="st3" d="M132.1,43.7c0.3-0.3,0.7-0.5,1-0.8c0.1,0.1,0.2,0.2,0.2,0.4C132.9,43.5,132.5,43.6,132.1,43.7
		C132.1,43.7,132.1,43.7,132.1,43.7z"/>
	<path class="st6" d="M120,26c0.3,0,0.6-0.1,0.9-0.1c1,0.6,2,1.1,2.5,2.1c-0.2,0.2-0.4,0.4-0.5,0.6C121.7,28,120.6,27.3,120,26z"/>
	<path class="st10" d="M152.1,17.7c0-0.8,0-1.5,0-2.3c5.6-1,11.3-1.8,16.8,0.7c1.7,0.7,3.4,1.4,4.4,3.1c-0.8,1.6-1.5,0.2-2.1-0.1
		c-4-2.1-8.3-3.3-12.9-3.1C156,16.1,154.1,17,152.1,17.7z"/>
	<path class="st7" d="M187.6,156c-1-0.9-0.4-1.5,0.4-2C188,154.7,188.1,155.4,187.6,156z"/>
	<path class="st7" d="M185.5,159.5c0.9-0.2,0.3,1,0.9,1c0,0.3-0.1,0.8-0.5,0.6C185.4,160.7,185.5,160.1,185.5,159.5z"/>
	<path class="st8" d="M132.1,43.7C132.1,43.7,132.1,43.7,132.1,43.7c0.2,0,0.4,0,0.5-0.1c-0.5,0.5-0.1,0.7,0.3,1
		c2.3,4.3,5,8.5,5.2,13.6c0.1,2.6,0,5.2-2.8,6.3c-2.6,1.1-4.9,0-6.7-1.9c-5.3-5.5-9.7-11.6-12.1-18.9c-0.5-1.5-0.7-2.2,1.4-2.2
		c3.1,0.1,4.8-2.2,6.6-4.2c0.5-0.5,0.6-1.4,1.6-1.1c0.5,0.4,1,0.8,1.5,1.2C128.5,40,130.5,41.7,132.1,43.7z"/>
	<path class="st3" d="M179.5,41.5c-0.6,0-1-0.4-1-1C179.1,40.6,179.4,40.9,179.5,41.5z"/>
	<path class="st3" d="M178.5,40.5c-0.4,0-0.8-0.1-1-0.5C177.9,40,178.3,40.1,178.5,40.5z"/>
	<path class="st3" d="M181,42.5c-0.4,0-0.8-0.1-1-0.5C180.4,42,180.8,42.1,181,42.5z"/>
	<path class="st3" d="M181.5,43c-0.2-0.2-0.4-0.4-0.5-0.5C181.1,42.7,181.3,42.9,181.5,43z"/>
	<path class="st3" d="M180,42c-0.2-0.2-0.3-0.3-0.5-0.5C179.6,41.7,179.8,41.9,180,42z"/>
	<path class="st17" d="M171.9,223.9c0.1,2.2,0.1,4.4-0.8,6.5c-4.1,2.8-8,1.8-8.9-2.2c-0.5-2.7,0.8-5.8,2.8-6.6
		C167.4,220.6,170.5,221.6,171.9,223.9z"/>
	<path class="st13" d="M170,217.2c0.5,0.3,1,0.6,1.1,1.3c-1.3,0.3-2.5-0.2-3.7-0.4c-2.7-0.5-4.9,0.3-6.5,2.7
		c-0.3,0.4-0.5,0.9-0.9,1.2c-0.7,0.5-1.6,0.8-2.3,0.2c-0.6-0.6,0-1.2,0.3-1.8c2.1-3.8,5-4.8,10-3.7C168.7,216.8,169.4,217,170,217.2
		z"/>
	<path class="st13" d="M168,238.1c-3.4,1.5-5.6-0.7-8.1-2.3c-0.5-1.1-1.8-1.7-1.8-3.3c1.2,0,1.9,0.8,2.5,1.3c2,1.7,4.1,2.3,6.6,2.2
		c0.7,0,1.7-0.4,2,0.5C169.6,237.4,168.4,237.6,168,238.1z"/>
	<path class="st10" d="M154.4,227.9c0,0.5,0.1,1,0.1,1.5C153.9,229,153.9,228.5,154.4,227.9z"/>
	<path class="st4" d="M146.1,239.9c-2.9,4-6.7,4.7-11.4,3.6c-5.5-1.3-9.9-3.6-11.8-9.3c-0.3-0.8-0.3-1.6-0.1-2.4
		c0.3-0.4,0.3-0.9,0-1.3c0-0.6,0-1.1,0-1.7c0.2-0.3,0.5-0.5,0.7-0.8c4.7-2.8,9.7-5.1,14.9-6.8c2.4-0.7,4.7-1,7,0.2
		c0.1,0.2,0.3,0.3,0.4,0.5C146.6,228,146.9,233.9,146.1,239.9z"/>
	<path class="st8" d="M123.1,226.5c-0.2-1.1-0.4-2.3-0.5-3.4c5.8-4.2,11.9-7.6,19.5-7.1c2.1,0.1,3.6,0.6,3.7,3
		c-0.2,0.1-0.4,0.3-0.7,0.4c-1.4-0.7-2.9-0.4-4.4-0.2C134.1,220,128.7,223.6,123.1,226.5z"/>
	<path class="st15" d="M145.7,219c-0.1-2.4-1.6-2.9-3.7-3c-7.5-0.5-13.6,2.9-19.5,7.1c0-0.8,0-1.5,0-2.3c1.6-0.3,2.8-1.3,4.1-2.2
		c1.5-0.2,3-0.6,4-1.9l0.1,0c1-0.1,2-0.2,2.4-1.4c3.1-0.9,6.2-0.8,9.4-0.8c4,0,4.6,0.6,4.7,4.6C146.6,219,146.1,219,145.7,219z"/>
	<path class="st7" d="M123.1,226.5c5.7-2.9,11-6.5,17.5-7.2c1.5-0.2,3-0.5,4.4,0.2c0.3,0.7,0.6,1.4,0.4,2.2c-2.3-1.3-4.7-1-7-0.2
		c-5.3,1.6-10.2,4-14.9,6.8c-0.2,0-0.3,0-0.5,0C123,227.5,123,227,123.1,226.5z"/>
	<path class="st18" d="M120.9,223.2c0,2.6,0.1,5.2,0,7.7c-0.1,2.8-1.1,3.9-3.5,3.9c-3.4,0.1-4.5-0.7-5-3.5c-0.1-0.5-0.1-1-0.1-1.5
		c0.2-5.1,0.4-10.3,0.6-15.4c0.1-1.9,0.5-2.8,2.9-2.3c4.8,1,4.8,0.9,4.8,5.8c0,1.7,0,3.5,0,5.2C120.8,223.2,120.8,223.2,120.9,223.2
		z"/>
	<path class="st5" d="M112.5,202.9c0.1,0,0.2,0,0.3,0.1c0.6-0.1,0.9-0.4,0.8-1c0,0,0,0,0,0c1,0.3,1.8-0.3,2.7-0.4c2-0.2,4-0.1,5,1.9
		c0.9,1.7,1.4,3.6-0.1,5.6c-1.6,2.2-3.8,1.6-5.7,1.3c-1.8-0.2-2.6-1.9-2.8-3.7c-0.1-1-0.1-2-0.1-3
		C112.5,203.4,112.5,203.1,112.5,202.9z M117,209.1c2,0,3.5-1.1,3.5-2.7c0-1.9-1.3-3.6-3.1-3.4c-1.8,0.1-3.4,0.8-3.3,2.9
		C114.1,207.6,114.7,209.2,117,209.1z"/>
	<path class="st4" d="M130.6,216.6c-1.8,0.7-3.1,0.2-4.3-1.3c-1-1.3-2.3-2.4-3.4-3.6c-0.7-0.8-1.1-1.7-0.3-2.7
		c0.8-1,1.6-0.2,2.4,0.2c2.4,1.1,4.3,2.7,5.4,5.2C130.8,215.1,131.2,215.7,130.6,216.6C130.6,216.5,130.6,216.6,130.6,216.6z"/>
	<path class="st4" d="M107.1,216.4c-0.9-0.6-1.8-1.3-2.6-1.9c1.2-2.6,3.4-4.2,5.7-5.7c0.5-0.3,1.3-0.9,1.7-0.1
		c0.4,0.8,1.5,1.7,0.6,2.7C110.7,213.1,109.3,215.2,107.1,216.4z"/>
	<path class="st14" d="M126.6,218.5c-1.2,0.9-2.5,1.9-4.1,2.2c-0.6-2.3-0.6-4.5-0.4-7.3C124,215.1,126.1,216,126.6,218.5z"/>
	<path class="st14" d="M111,219.5c-0.8-0.8-2-1.3-2.3-2.6c1.3-0.6,1.5-2.3,3.1-3C111.9,216,112.3,217.9,111,219.5z"/>
	<path class="st11" d="M122.8,230.6c0.3,0.4,0.3,0.9,0,1.3C122.8,231.4,122.8,231,122.8,230.6z"/>
	<path class="st11" d="M123,228.1c0.2,0,0.3,0,0.5,0c-0.2,0.3-0.5,0.5-0.7,0.8C122.8,228.6,122.9,228.4,123,228.1z"/>
	<path class="st8" d="M79.9,220c1.5-1.1,2.9-0.4,4.4,0.1C82.8,221.4,81.4,221.1,79.9,220z"/>
	<path class="st6" d="M77,206.9c0.7,0.9,1.3,1.8,1,3C77,209.2,77,208.1,77,206.9z"/>
	<path class="st16" d="M143.2,173c-2.3-0.3-5,0.3-7.7-0.8c-1.7-0.7-2.4-1.3-2.7-2.9c-0.3-1.7,0.4-2.9,1.6-3.9
		c1.6-1.1,3.4-1.9,5.4-2.2c4.4-0.7,8.7-0.5,13,0.7c2.4,0.7,3.4,1.9,3.2,4.4c-0.2,2.5-1.9,3.4-3.8,4C149.4,173.3,146.4,173,143.2,173
		z"/>
	<path class="st16" d="M79.8,175.6c-2.5-0.8-4.9-0.4-7.3-1c-2.8-0.7-4.4-2.3-4.2-4.1c0.2-1.7,3.3-5.1,5-5.4
		c4.4-0.6,8.6-0.3,12.6,2.3c2.7,1.7,3.1,4.5,0.3,6C84.1,174.5,81.8,175,79.8,175.6z"/>
	<path class="st5" d="M130.1,175.3c0.6,4-1.3,7-4.5,8.9c-7.4,4.5-15.1,4.3-22.8,0.6c-3-1.5-4.3-4.3-5.2-7.3
		c-0.1-0.5-0.3-1.1,0.3-1.3c0.6-0.3,0.8,0.3,1,0.8c1.2,5.8,5.5,7.8,10.7,9c5.8,1.4,10.9-0.2,15.8-3.4
		C128.1,180.9,128.9,178,130.1,175.3z"/>
	<path class="st16" d="M114.4,153.4c3.5-4.9,7-9.7,10.7-14.7c0.7,1.3,1.3,2.2,1.3,3.3c-2.2,2.5-4.3,5.1-6.5,7.6
		C118.4,151.4,116.9,153.1,114.4,153.4z"/>
	<path class="st16" d="M75.5,144.8c1.7-2.6,3.6-4.9,7.1-4.8c-1.3,2.5-1.6,5.1-1.6,7.9c0,0.6,0.3,1.5-0.5,1.7c-0.7,0.2-1.2-0.5-1.5-1
		C77.9,147.3,76.8,146,75.5,144.8z"/>
	<path class="st14" d="M159.3,132c0.9,0.7,1.8,1.3,2.7,2c1.1,1.5,2.3,3,3.4,4.6c0.9,1.2,1.3,2.7,0.2,3.9c-1.1,1.2-2.7,0.5-3.5-0.5
		c-5.6-6.2-12.5-5.5-19.6-4.2c0.6-2.8,2.7-5,3.5-7.7C150.6,129.6,154.9,131.1,159.3,132z"/>
	<path class="st16" d="M147,115.5c0.9-2.5,1.8-4.9,2.7-7.6c1.5,2.1,1.5,4.5,2.5,6.6c2.4,5,4.4,10.2,7,15.1c0.2,0.3,0.2,0.8,0.3,1.2
		c-2.4-1-4.9-2-7.5-2.4c0.7-0.5,1.4-0.3,2.2-0.3c1.2,0,1.5-0.6,1-1.6c-1.1-2.2-2.2-4.5-3.2-6.7c-0.3-0.7-1.2-0.8-1.2-0.1
		c-0.3,3.1-2.6,5.3-3.2,8.3c-1.5,0.1-3,0.2-4.4,0.2c-0.7,0-1.6,0.4-2-0.5c-0.3-0.7,0.4-1.2,0.8-1.7
		C144.4,122.8,145.7,119.1,147,115.5z"/>
	<path class="st16" d="M146,130c-0.8,2.7-2.9,4.9-3.5,7.7c-0.4,0.1-0.8,0.1-1.2,0.3c-2.4,1.3-4.7,2.9-6.1-1.3
		c-0.4-1.3-2.4-1.2-3.8-1.8C136.2,133,140.1,128.7,146,130z"/>
	<path class="st14" d="M88,137.4c-0.7,0-1.3,0.1-2,0.1c-0.7-1.1-2.1,0.3-2.7-0.6c-0.9-1.5,0.2-3,0.3-4.5c0.1-1.1,1-1.3,2-1.4
		c1.4-0.1,3,0.5,4.3-0.4c1.3,0,2.2,0.5,2.8,1.7c1.2,2.2,2.9,4,3.9,6.7c-2.5-0.7-4.8-1.4-7.1-1.5C89,136.9,88.5,136.9,88,137.4z"/>
	<path class="st16" d="M87,114.9c0.1,0.2,0.3,0.4,0.4,0.7c0.6,4,1.9,7.9,3.3,11.7c0.7,1.8,0.3,2.5-1.7,2.2c-2.1-0.3-4.1-0.3-6.2-0.6
		c-0.6-0.1-1.6,0-1.1-1.3c1.8-3.8,3-7.9,4.3-11.9C86.2,115.2,86.6,114.9,87,114.9z M88.1,128.3c1,0.1,1.9,0,1.7-0.9
		c-0.3-1.6-1.4-3-3-3.3c-1.9-0.3-1.4,1.6-1.5,2.5C84.9,129.2,87.5,127.3,88.1,128.3z"/>
	<path class="st16" d="M90,130.6c-1.4,0.9-2.9,0.3-4.3,0.4c-1,0.1-1.9,0.3-2,1.4c-0.1,1.5-1.3,3-0.3,4.5c0.6,0.9,1.9-0.4,2.7,0.6
		c-2.5,0.6-5,1.2-7.4,1.9c-1.1,0.3-1.5-0.1-1.1-1.1c0.9-2.4,1.8-4.8,2.7-7.2c0.2-0.6,0.7-0.9,1.4-0.8
		C84.4,130.4,87.2,129.9,90,130.6z"/>
	<path class="st14" d="M147.5,127.8c0.6-2.9,2.9-5.2,3.2-8.3c0.1-0.7,0.9-0.6,1.2,0.1c1.1,2.2,2.2,4.5,3.2,6.7c0.5,1,0.1,1.6-1,1.6
		c-0.7,0-1.5-0.2-2.2,0.3C150.5,128.2,149,128,147.5,127.8z"/>
	<path class="st16" d="M133.8,122.9c0.1,0.2,0.2,0.4,0.3,0.6c0.2,4.7,0.4,9.3-6,10.3c-0.1-1.2,1.1-2.1,1.6-3.2
		c1-2.5,2.1-4.9,3.1-7.3C133.1,122.8,133.2,122.3,133.8,122.9z"/>
	<path class="st16" d="M72.9,134.2c0.1,0.7,0.3,1.5,0.4,2.2c-1-0.2-2.1-0.3-3.4-0.5C70.9,134.9,71.7,134.2,72.9,134.2z"/>
	<path class="st16" d="M88,137.4c0.5-0.5,1-0.5,1.5,0C89,137.4,88.5,137.4,88,137.4z"/>
	<path class="st10" d="M113.5,202c0.1,0.6-0.2,0.9-0.8,1C112.9,202.6,113,202.1,113.5,202z"/>
	<path class="st8" d="M98.6,45.1c1.4-1.6,2.9-3.1,4.2-4.8c1.5-1.8,3-3.4,5.2-4.3c0.9,1.9,2.1,3.5,4,4.6c2.4,1.3,3.3,3.6,2.3,6.2
		c-2.2,5.9-5.9,10.8-10.7,14.8c-1.8,1.5-4,2.3-6.3,2.7c-3.7,0.7-5.7-1.3-4.7-5c0.8-3.1,2.1-6,3.4-8.8C96.9,48.7,97.7,46.9,98.6,45.1
		z"/>
	<path class="st17" d="M120,26c0.7,1.2,1.7,2,2.9,2.7c1.1,3.6,1.7,7.1-1.7,9.9c-2.1,1.8-6,2-8.6,0.4c-2.7-1.6-3.7-4.3-2.9-7.8
		c0.6-2.5,3.7-5.1,6.3-5.2C117.3,26,118.6,26.1,120,26z"/>
	<path class="st9" d="M132.9,44.7c-0.4-0.2-0.8-0.5-0.3-1C132.7,44,132.8,44.3,132.9,44.7z"/>
	<path class="st5" d="M196.7,141c0,0.1,0.1,0.1,0.1,0.2c0,0-0.1,0.1-0.1,0.1c0-0.1-0.1-0.1-0.1-0.2
		C196.6,141.1,196.6,141.1,196.7,141z"/>
	<path class="st10" d="M117,209.1c-2.3,0.1-2.9-1.5-2.9-3.2c-0.1-2.1,1.6-2.8,3.3-2.9c1.8-0.1,3.2,1.5,3.1,3.4
		C120.5,208,119,209.1,117,209.1z"/>
	<path class="st14" d="M88.1,128.3c-0.6-1.1-3.2,0.8-2.8-1.7c0.1-0.9-0.4-2.8,1.5-2.5c1.6,0.3,2.7,1.7,3,3.3
		C90,128.3,89.1,128.5,88.1,128.3z"/>
</g>
</svg>
